<?xml version="1.0" encoding="UTF-8"?>
<?xml-stylesheet href="../css/style.css" type="text/css"?>
<svg class="servises__icon-color" width="100%" height="100%" version="1.1" viewBox="0 0 700 700" xmlns="http://www.w3.org/2000/svg" xmlns:xlink="http://www.w3.org/1999/xlink">
 <defs>
  <symbol id="v" overflow="visible">
   <path d="m18.766-1.125c-0.96875 0.5-1.9805 0.875-3.0312 1.125-1.043 0.25781-2.1367 0.39062-3.2812 0.39062-3.3984 0-6.0898-0.94531-8.0781-2.8438-1.9922-1.9062-2.9844-4.4844-2.9844-7.7344 0-3.2578 0.99219-5.8359 2.9844-7.7344 1.9883-1.9062 4.6797-2.8594 8.0781-2.8594 1.1445 0 2.2383 0.13281 3.2812 0.39062 1.0508 0.25 2.0625 0.625 3.0312 1.125v4.2188c-0.98047-0.65625-1.9453-1.1406-2.8906-1.4531-0.94922-0.3125-1.9492-0.46875-3-0.46875-1.875 0-3.3516 0.60547-4.4219 1.8125-1.0742 1.1992-1.6094 2.8555-1.6094 4.9688 0 2.1055 0.53516 3.7617 1.6094 4.9688 1.0703 1.1992 2.5469 1.7969 4.4219 1.7969 1.0508 0 2.0508-0.14844 3-0.45312 0.94531-0.3125 1.9102-0.80078 2.8906-1.4688z"/>
  </symbol>
  <symbol id="e" overflow="visible">
   <path d="m13.734-11.141c-0.4375-0.19531-0.87109-0.34375-1.2969-0.4375-0.41797-0.10156-0.83984-0.15625-1.2656-0.15625-1.2617 0-2.2305 0.40625-2.9062 1.2188-0.67969 0.80469-1.0156 1.9531-1.0156 3.4531v7.0625h-4.8906v-15.312h4.8906v2.5156c0.625-1 1.3438-1.7266 2.1562-2.1875 0.82031-0.46875 1.8008-0.70312 2.9375-0.70312 0.16406 0 0.34375 0.011719 0.53125 0.03125 0.19531 0.011719 0.47656 0.039062 0.84375 0.078125z"/>
  </symbol>
  <symbol id="a" overflow="visible">
   <path d="m17.641-7.7031v1.4062h-11.453c0.125 1.1484 0.53906 2.0078 1.25 2.5781 0.70703 0.57422 1.7031 0.85938 2.9844 0.85938 1.0312 0 2.082-0.14844 3.1562-0.45312 1.082-0.3125 2.1914-0.77344 3.3281-1.3906v3.7656c-1.1562 0.4375-2.3125 0.76562-3.4688 0.98438-1.1562 0.22656-2.3125 0.34375-3.4688 0.34375-2.7734 0-4.9297-0.70312-6.4688-2.1094-1.5312-1.4062-2.2969-3.3789-2.2969-5.9219 0-2.5 0.75391-4.4609 2.2656-5.8906 1.5078-1.4375 3.582-2.1562 6.2188-2.1562 2.4062 0 4.332 0.73047 5.7812 2.1875 1.4453 1.4492 2.1719 3.3828 2.1719 5.7969zm-5.0312-1.625c0-0.92578-0.27344-1.6719-0.8125-2.2344-0.54297-0.57031-1.25-0.85938-2.125-0.85938-0.94922 0-1.7188 0.26562-2.3125 0.79688s-0.96484 1.2969-1.1094 2.2969z"/>
  </symbol>
  <symbol id="j" overflow="visible">
   <path d="m9.2188-6.8906c-1.0234 0-1.793 0.17188-2.3125 0.51562-0.51172 0.34375-0.76562 0.85547-0.76562 1.5312 0 0.625 0.20703 1.1172 0.625 1.4688 0.41406 0.34375 0.98828 0.51562 1.7188 0.51562 0.92578 0 1.7031-0.32812 2.3281-0.98438 0.63281-0.66406 0.95312-1.4922 0.95312-2.4844v-0.5625zm7.4688-1.8438v8.7344h-4.9219v-2.2656c-0.65625 0.92969-1.3984 1.6055-2.2188 2.0312-0.82422 0.41406-1.8242 0.625-3 0.625-1.5859 0-2.8711-0.45703-3.8594-1.375-0.99219-0.92578-1.4844-2.1289-1.4844-3.6094 0-1.7891 0.61328-3.1016 1.8438-3.9375 1.2383-0.84375 3.1797-1.2656 5.8281-1.2656h2.8906v-0.39062c0-0.76953-0.30859-1.332-0.92188-1.6875-0.61719-0.36328-1.5703-0.54688-2.8594-0.54688-1.0547 0-2.0312 0.10547-2.9375 0.3125-0.89844 0.21094-1.7305 0.52344-2.5 0.9375v-3.7344c1.0391-0.25 2.0859-0.44141 3.1406-0.57812 1.0625-0.13281 2.125-0.20312 3.1875-0.20312 2.7578 0 4.75 0.54688 5.9688 1.6406 1.2266 1.0859 1.8438 2.8555 1.8438 5.3125z"/>
  </symbol>
  <symbol id="b" overflow="visible">
   <path d="m7.7031-19.656v4.3438h5.0469v3.5h-5.0469v6.5c0 0.71094 0.14062 1.1875 0.42188 1.4375s0.83594 0.375 1.6719 0.375h2.5156v3.5h-4.1875c-1.9375 0-3.3125-0.39844-4.125-1.2031-0.80469-0.8125-1.2031-2.1797-1.2031-4.1094v-6.5h-2.4219v-3.5h2.4219v-4.3438z"/>
  </symbol>
  <symbol id="d" overflow="visible">
   <path d="m12.766-13.078v-8.2031h4.9219v21.281h-4.9219v-2.2188c-0.66797 0.90625-1.4062 1.5703-2.2188 1.9844s-1.7578 0.625-2.8281 0.625c-1.8867 0-3.4336-0.75-4.6406-2.25-1.2109-1.5-1.8125-3.4258-1.8125-5.7812 0-2.3633 0.60156-4.2969 1.8125-5.7969 1.207-1.5 2.7539-2.25 4.6406-2.25 1.0625 0 2 0.21484 2.8125 0.64062 0.82031 0.42969 1.5664 1.0859 2.2344 1.9688zm-3.2188 9.9219c1.0391 0 1.8359-0.37891 2.3906-1.1406 0.55078-0.76953 0.82812-1.8828 0.82812-3.3438 0-1.457-0.27734-2.5664-0.82812-3.3281-0.55469-0.76953-1.3516-1.1562-2.3906-1.1562-1.043 0-1.8398 0.38672-2.3906 1.1562-0.55469 0.76172-0.82812 1.8711-0.82812 3.3281 0 1.4609 0.27344 2.5742 0.82812 3.3438 0.55078 0.76172 1.3477 1.1406 2.3906 1.1406z"/>
  </symbol>
  <symbol id="i" overflow="visible">
   <path d="m10.5-3.1562c1.0508 0 1.8516-0.37891 2.4062-1.1406 0.55078-0.76953 0.82812-1.8828 0.82812-3.3438 0-1.457-0.27734-2.5664-0.82812-3.3281-0.55469-0.76953-1.3555-1.1562-2.4062-1.1562-1.0547 0-1.8594 0.38672-2.4219 1.1562-0.55469 0.77344-0.82812 1.8828-0.82812 3.3281 0 1.4492 0.27344 2.5586 0.82812 3.3281 0.5625 0.77344 1.3672 1.1562 2.4219 1.1562zm-3.25-9.9219c0.67578-0.88281 1.4219-1.5391 2.2344-1.9688 0.82031-0.42578 1.7656-0.64062 2.8281-0.64062 1.8945 0 3.4453 0.75 4.6562 2.25 1.207 1.5 1.8125 3.4336 1.8125 5.7969 0 2.3555-0.60547 4.2812-1.8125 5.7812-1.2109 1.5-2.7617 2.25-4.6562 2.25-1.0625 0-2.0078-0.21094-2.8281-0.625-0.8125-0.42578-1.5586-1.0859-2.2344-1.9844v2.2188h-4.8906v-21.281h4.8906z"/>
  </symbol>
  <symbol id="h" overflow="visible">
   <path d="m0.34375-15.312h4.8906l4.125 10.391 3.5-10.391h4.8906l-6.4375 16.766c-0.64844 1.6953-1.4023 2.8828-2.2656 3.5625-0.86719 0.6875-2 1.0312-3.4062 1.0312h-2.8438v-3.2188h1.5312c0.83203 0 1.4375-0.13672 1.8125-0.40625 0.38281-0.26172 0.67969-0.73047 0.89062-1.4062l0.14062-0.42188z"/>
  </symbol>
  <symbol id="g" overflow="visible">
   <path d="m10.047-11.359c1.1016 0 1.8945-0.20312 2.375-0.60938 0.47656-0.41406 0.71875-1.0938 0.71875-2.0312 0-0.92578-0.24219-1.5859-0.71875-1.9844-0.48047-0.40625-1.2734-0.60938-2.375-0.60938h-2.2188v5.2344zm-2.2188 3.6406v7.7188h-5.25v-20.406h8.0312c2.6875 0 4.6562 0.45312 5.9062 1.3594 1.2578 0.89844 1.8906 2.3203 1.8906 4.2656 0 1.3555-0.32812 2.4648-0.98438 3.3281-0.64844 0.86719-1.625 1.5-2.9375 1.9062 0.71875 0.16797 1.3594 0.54297 1.9219 1.125 0.57031 0.57422 1.1484 1.4492 1.7344 2.625l2.8594 5.7969h-5.6094l-2.4844-5.0781c-0.5-1.0195-1.0117-1.7109-1.5312-2.0781-0.51172-0.375-1.1953-0.5625-2.0469-0.5625z"/>
  </symbol>
  <symbol id="f" overflow="visible">
   <path d="m2.1875-5.9688v-9.3438h4.9219v1.5312c0 0.83594-0.007813 1.875-0.015625 3.125-0.011719 1.25-0.015625 2.0859-0.015625 2.5 0 1.2422 0.03125 2.1328 0.09375 2.6719 0.070313 0.54297 0.17969 0.93359 0.32812 1.1719 0.20703 0.32422 0.47266 0.57422 0.79688 0.75 0.32031 0.16797 0.69141 0.25 1.1094 0.25 1.0195 0 1.8203-0.39062 2.4062-1.1719 0.58203-0.78125 0.875-1.8672 0.875-3.2656v-7.5625h4.8906v15.312h-4.8906v-2.2188c-0.74219 0.89844-1.5234 1.5586-2.3438 1.9844-0.82422 0.41406-1.7344 0.625-2.7344 0.625-1.7617 0-3.1055-0.53906-4.0312-1.625-0.92969-1.082-1.3906-2.6602-1.3906-4.7344z"/>
  </symbol>
  <symbol id="u" overflow="visible">
   <path d="m1.5938-15.312h13.359v3.4219l-8.0625 8.3906h8.0625v3.5h-13.688v-3.4219l8.0625-8.3906h-7.7344z"/>
  </symbol>
  <symbol id="t" overflow="visible">
   <path d="m16.781-19.766v4.3125c-1.125-0.5-2.2266-0.875-3.2969-1.125-1.0625-0.25781-2.0703-0.39062-3.0156-0.39062-1.25 0-2.1797 0.17969-2.7812 0.53125-0.60547 0.34375-0.90625 0.88281-0.90625 1.6094 0 0.54297 0.20312 0.96875 0.60938 1.2812 0.40625 0.30469 1.1406 0.5625 2.2031 0.78125l2.25 0.45312c2.2695 0.44922 3.8789 1.1406 4.8281 2.0781 0.95703 0.92969 1.4375 2.2461 1.4375 3.9531 0 2.25-0.66797 3.9297-2 5.0312-1.3359 1.0938-3.3711 1.6406-6.1094 1.6406-1.3047 0-2.6055-0.125-3.9062-0.375-1.3047-0.23828-2.6055-0.59766-3.9062-1.0781v-4.4531c1.3008 0.69922 2.5625 1.2266 3.7812 1.5781 1.2188 0.34375 2.3906 0.51562 3.5156 0.51562 1.1562 0 2.0352-0.1875 2.6406-0.5625 0.61328-0.38281 0.92188-0.9375 0.92188-1.6562 0-0.63281-0.21094-1.125-0.625-1.4688-0.41797-0.34375-1.2461-0.65625-2.4844-0.9375l-2.0312-0.4375c-2.043-0.4375-3.5391-1.1328-4.4844-2.0938-0.9375-0.95703-1.4062-2.25-1.4062-3.875 0-2.0312 0.65625-3.5938 1.9688-4.6875s3.1953-1.6406 5.6562-1.6406c1.125 0 2.2734 0.085938 3.4531 0.25 1.1875 0.16797 2.4141 0.42188 3.6875 0.76562z"/>
  </symbol>
  <symbol id="s" overflow="visible">
   <path d="m2.3594-15.312h4.8906v15.312h-4.8906zm0-5.9688h4.8906v4h-4.8906z"/>
  </symbol>
  <symbol id="c" overflow="visible">
   <path d="m9.6406-12.188c-1.0859 0-1.9141 0.39062-2.4844 1.1719-0.57422 0.78125-0.85938 1.9062-0.85938 3.375s0.28516 2.5938 0.85938 3.375c0.57031 0.77344 1.3984 1.1562 2.4844 1.1562 1.0625 0 1.875-0.38281 2.4375-1.1562 0.57031-0.78125 0.85938-1.9062 0.85938-3.375s-0.28906-2.5938-0.85938-3.375c-0.5625-0.78125-1.375-1.1719-2.4375-1.1719zm0-3.5c2.6328 0 4.6914 0.71484 6.1719 2.1406 1.4766 1.418 2.2188 3.3867 2.2188 5.9062 0 2.5117-0.74219 4.4805-2.2188 5.9062-1.4805 1.418-3.5391 2.125-6.1719 2.125-2.6484 0-4.7148-0.70703-6.2031-2.125-1.4922-1.4258-2.2344-3.3945-2.2344-5.9062 0-2.5195 0.74219-4.4883 2.2344-5.9062 1.4883-1.4258 3.5547-2.1406 6.2031-2.1406z"/>
  </symbol>
  <symbol id="r" overflow="visible">
   <path d="m12.422-21.281v3.2188h-2.7031c-0.6875 0-1.1719 0.125-1.4531 0.375-0.27344 0.25-0.40625 0.6875-0.40625 1.3125v1.0625h4.1875v3.5h-4.1875v11.812h-4.8906v-11.812h-2.4375v-3.5h2.4375v-1.0625c0-1.6641 0.46094-2.8984 1.3906-3.7031 0.92578-0.80078 2.3672-1.2031 4.3281-1.2031z"/>
  </symbol>
  <symbol id="q" overflow="visible">
   <path d="m16.547-12.766c0.61328-0.94531 1.3477-1.6719 2.2031-2.1719 0.85156-0.5 1.7891-0.75 2.8125-0.75 1.7578 0 3.0977 0.54688 4.0156 1.6406 0.92578 1.0859 1.3906 2.6562 1.3906 4.7188v9.3281h-4.9219v-7.9844-0.35938c0.007813-0.13281 0.015625-0.32031 0.015625-0.5625 0-1.082-0.16406-1.8633-0.48438-2.3438-0.3125-0.48828-0.82422-0.73438-1.5312-0.73438-0.92969 0-1.6484 0.38672-2.1562 1.1562-0.51172 0.76172-0.77344 1.8672-0.78125 3.3125v7.5156h-4.9219v-7.9844c0-1.6953-0.14844-2.7852-0.4375-3.2656-0.29297-0.48828-0.8125-0.73438-1.5625-0.73438-0.9375 0-1.6641 0.38672-2.1719 1.1562-0.51172 0.76172-0.76562 1.8594-0.76562 3.2969v7.5312h-4.9219v-15.312h4.9219v2.2344c0.60156-0.86328 1.2891-1.5156 2.0625-1.9531 0.78125-0.4375 1.6406-0.65625 2.5781-0.65625 1.0625 0 2 0.25781 2.8125 0.76562 0.8125 0.51172 1.4258 1.2305 1.8438 2.1562z"/>
  </symbol>
  <symbol id="p" overflow="visible">
   <path d="m17.75-9.3281v9.3281h-4.9219v-7.1094c0-1.3438-0.03125-2.2656-0.09375-2.7656s-0.16797-0.86719-0.3125-1.1094c-0.1875-0.3125-0.44922-0.55469-0.78125-0.73438-0.32422-0.17578-0.69531-0.26562-1.1094-0.26562-1.0234 0-1.8242 0.39844-2.4062 1.1875-0.58594 0.78125-0.875 1.8711-0.875 3.2656v7.5312h-4.8906v-21.281h4.8906v8.2031c0.73828-0.88281 1.5195-1.5391 2.3438-1.9688 0.83203-0.42578 1.75-0.64062 2.75-0.64062 1.7695 0 3.1133 0.54688 4.0312 1.6406 0.91406 1.0859 1.375 2.6562 1.375 4.7188z"/>
  </symbol>
  <symbol id="o" overflow="visible">
   <path d="m2.5781-20.406h5.875l7.4219 14v-14h4.9844v20.406h-5.875l-7.4219-14v14h-4.9844z"/>
  </symbol>
  <symbol id="n" overflow="visible">
   <path d="m17.75-9.3281v9.3281h-4.9219v-7.1406c0-1.3203-0.03125-2.2344-0.09375-2.7344s-0.16797-0.86719-0.3125-1.1094c-0.1875-0.3125-0.44922-0.55469-0.78125-0.73438-0.32422-0.17578-0.69531-0.26562-1.1094-0.26562-1.0234 0-1.8242 0.39844-2.4062 1.1875-0.58594 0.78125-0.875 1.8711-0.875 3.2656v7.5312h-4.8906v-15.312h4.8906v2.2344c0.73828-0.88281 1.5195-1.5391 2.3438-1.9688 0.83203-0.42578 1.75-0.64062 2.75-0.64062 1.7695 0 3.1133 0.54688 4.0312 1.6406 0.91406 1.0859 1.375 2.6562 1.375 4.7188z"/>
  </symbol>
  <symbol id="m" overflow="visible">
   <path d="m2.5781-20.406h8.7344c2.5938 0 4.582 0.57812 5.9688 1.7344 1.3945 1.1484 2.0938 2.7891 2.0938 4.9219 0 2.1367-0.69922 3.7812-2.0938 4.9375-1.3867 1.1562-3.375 1.7344-5.9688 1.7344h-3.4844v7.0781h-5.25zm5.25 3.8125v5.7031h2.9219c1.0195 0 1.8047-0.25 2.3594-0.75 0.5625-0.5 0.84375-1.2031 0.84375-2.1094 0-0.91406-0.28125-1.6172-0.84375-2.1094-0.55469-0.48828-1.3398-0.73438-2.3594-0.73438z"/>
  </symbol>
  <symbol id="l" overflow="visible">
   <path d="m2.3594-15.312h4.8906v15.031c0 2.0508-0.49609 3.6172-1.4844 4.7031-0.98047 1.082-2.4062 1.625-4.2812 1.625h-2.4219v-3.2188h0.85938c0.92578 0 1.5625-0.21094 1.9062-0.625 0.35156-0.41797 0.53125-1.2461 0.53125-2.4844zm0-5.9688h4.8906v4h-4.8906z"/>
  </symbol>
  <symbol id="k" overflow="visible">
   <path d="m14.719-14.828v3.9844c-0.65625-0.45703-1.3242-0.79688-2-1.0156-0.66797-0.21875-1.3594-0.32812-2.0781-0.32812-1.3672 0-2.4336 0.40234-3.2031 1.2031-0.76172 0.79297-1.1406 1.9062-1.1406 3.3438 0 1.4297 0.37891 2.543 1.1406 3.3438 0.76953 0.79297 1.8359 1.1875 3.2031 1.1875 0.75781 0 1.4844-0.10938 2.1719-0.32812 0.6875-0.22656 1.3203-0.56641 1.9062-1.0156v4c-0.76172 0.28125-1.5391 0.48828-2.3281 0.625-0.78125 0.14453-1.5742 0.21875-2.375 0.21875-2.7617 0-4.9219-0.70703-6.4844-2.125-1.5547-1.4141-2.3281-3.3828-2.3281-5.9062 0-2.5312 0.77344-4.5039 2.3281-5.9219 1.5625-1.4141 3.7227-2.125 6.4844-2.125 0.80078 0 1.5938 0.074219 2.375 0.21875 0.78125 0.13672 1.5547 0.35156 2.3281 0.64062z"/>
  </symbol>
 </defs>
 <g>
  <path d="m585.12 200.59c5.1523 0 9.6445-3.5156 10.875-8.5195 9.3672-38.035-2.1914-95.688-37.207-122.51-1.9531-1.4961-4.3438-2.3086-6.8086-2.3086l-403.97 0.003906c-2.457 0-4.8555 0.8125-6.8086 2.3086-35.016 26.824-46.57 84.477-37.195 122.51 1.2305 5.0078 5.7188 8.5195 10.875 8.5195h30.398c3.2148 15.586 7.6602 53.484-11.676 97.715-0.46484 1.0586-0.69531 2.168-0.81641 3.2891-4.0156 7.7109-6.2266 16.258-6.2266 25.109 0 30.105 24.496 54.602 54.602 54.602 2.7422 0 5.4648-0.20703 8.1602-0.61719 1.0469 4.0078 2.5703 7.8945 4.5547 11.555 13.648 25.207 45.258 34.613 70.469 20.965 14.723-7.9727 24.309-22.266 26.652-38.086 0.99609 0.51953 2.0039 1.0117 3.0352 1.4688-0.03125 0.52344-0.035156 1.0547-0.035156 1.582 0 29.719 24.18 53.898 53.898 53.898 29.703 0 53.871-24.152 53.898-53.848 4.8398-1.6797 9.4023-4.0273 13.559-6.9766 7.1406 12.266 20.402 20.223 34.977 20.223 14.875 0 28.52-8.3203 35.559-21.207 9.375 7.1133 20.871 11.031 32.949 11.031 30.105 0 54.602-24.496 54.602-54.602 0-8.8555-2.2109-17.395-6.2344-25.117-0.11719-1.1211-0.35156-2.2227-0.8125-3.2812-18.977-43.406-17.926-81.273-16.168-97.715h34.895zm-66.281 158.31c-9.7891 0-18.922-4.3633-25.055-11.961-4.2578-5.2695-13.188-5.2656-17.434 0-1.5195 1.8828-3.332 3.6445-5.3984 5.2461-1.6523 1.2812-2.918 3-3.6328 4.9609-2.6484 7.1328-9.4688 11.93-16.984 11.93-8.0547 0-15.211-5.4766-17.406-13.316-0.56641-2.0234-1.6914-3.8398-3.2383-5.2539-1.4609-1.3281-2.5547-2.457-3.4453-3.5625-2.1289-2.6328-5.3242-4.168-8.7148-4.168h-0.003906c-3.3828 0-6.5898 1.5352-8.7148 4.1719-5.1406 6.3711-12.453 10.496-20.598 11.613-3.0625 0.42188-5.8203 2.0898-7.6055 4.6133-1.7852 2.5195-2.457 5.6719-1.8438 8.7031 0.41406 2.0703 0.62891 4.1875 0.62891 6.3008 0 17.371-14.129 31.5-31.5 31.5-17.367 0.003906-31.496-14.137-31.496-31.5 0-2.2227 0.25781-4.5195 0.76562-6.8203 1.3164-5.9805-2.4141-11.91-8.3789-13.312-6.8828-1.6172-13.137-5.5625-17.613-11.098-2.1289-2.6367-5.332-4.168-8.7188-4.168h-0.003906c-3.3867 0-6.5898 1.5352-8.7188 4.1758-0.76562 0.95703-1.6016 1.8594-2.4766 2.7227-2.8164 2.7812-3.9648 6.8477-3 10.691 3.2695 13.098-2.7266 26.73-14.582 33.145-14.348 7.7578-32.34 2.418-40.105-11.93-2.4648-4.5547-3.6797-9.7227-3.5234-14.945 0.11719-3.8516-1.7539-7.5-4.9609-9.6484-3.2031-2.1445-7.2852-2.4883-10.809-0.91797-4.2188 1.8828-8.6289 2.8398-13.121 2.8398-17.754 0-32.199-14.449-32.199-32.199 0-6.3711 1.832-12.5 5.3086-17.73 5.9961-9.0625 16.051-14.469 26.891-14.469 9.7617 0 18.891 4.3789 25.047 12.02 4.2578 5.2695 13.184 5.2695 17.434 0 6.1602-7.6328 15.289-12.02 25.055-12.02 9.7617 0 18.891 4.3789 25.047 12.02 4.2578 5.2695 13.184 5.2695 17.434 0 6.1602-7.6328 15.289-12.02 25.047-12.02 9.7617 0 18.895 4.3789 25.055 12.02 4.2578 5.2695 13.184 5.2695 17.434 0 6.1602-7.6328 15.289-12.02 25.055-12.02 9.7539 0 18.891 4.3789 25.047 12.02 2.1289 2.6367 5.332 4.168 8.7188 4.168 3.3867 0 6.5898-1.5273 8.7148-4.168 6.1719-7.6367 15.301-12.02 25.059-12.02 9.7617 0 18.895 4.3789 25.055 12.02 4.2578 5.2695 13.184 5.2695 17.434 0 6.1602-7.6328 15.289-12.02 25.055-12.02 10.848 0 20.895 5.4102 26.891 14.465 0.003906 0.003906 0.003906 0.011719 0.011719 0.011719 3.4648 5.2266 5.2969 11.352 5.2969 17.719 0 17.75-14.441 32.191-32.199 32.191zm15.496-84.562c-0.30859-0.089844-0.62891-0.11719-0.93359-0.20703-1.5742-0.4375-3.1797-0.75781-4.8047-1.0547-0.78906-0.14062-1.5586-0.33594-2.3594-0.44922-2.4375-0.33203-4.8984-0.53125-7.3906-0.53125-12.426 0-24.238 4.1719-33.77 11.711-7.7656-6.1445-17.051-10-26.941-11.234-7.3633-15.188-4.7773-31.578-4.7109-31.969 1.082-6.0703-2.9453-11.879-9.0156-12.98-6.0742-1.0977-11.918 2.9219-13.027 9.0117-0.16797 0.92969-3.2305 18.711 3.4258 38.051-6.2422 1.9766-12.102 5.0352-17.277 9.1289-9.5312-7.543-21.348-11.711-33.762-11.711-12.426 0-24.238 4.1719-33.77 11.711-1.2422-0.98438-2.5312-1.9023-3.8516-2.7734v-42.398c0-6.1836-5.0195-11.199-11.199-11.199-6.1836 0-11.199 5.0195-11.199 11.199v34.02c-2.4766-0.33984-4.9766-0.55859-7.5195-0.55859-12.422 0-24.238 4.1719-33.77 11.711-7.8906-6.2383-17.348-10.129-27.418-11.297 2.418-12.605 2.0117-26.902 1.5117-34.602-0.40234-6.1758-5.7969-10.875-11.906-10.445-6.1719 0.40234-10.852 5.7344-10.445 11.906 0.91797 14.035-0.46484 30.051-2.793 35.555-5.9531 1.9805-11.531 4.9688-16.488 8.8867-9.5312-7.5391-21.348-11.711-33.77-11.711-2.5469 0-5.0625 0.21875-7.543 0.55859-0.79688 0.11328-1.5625 0.29688-2.3477 0.44141-1.6797 0.30859-3.3359 0.66016-4.9688 1.125-0.35938 0.10156-0.73828 0.13281-1.0977 0.24609 7.707-31.824 5.582-58.348 2.8789-73.879h219.68c6.1836 0 11.199-5.0195 11.199-11.199 0-6.1836-5.0195-11.199-11.199-11.199h-263.62c-4.0938-29.645 5.2969-68.801 27.871-88.543h395.99c22.566 19.734 31.961 58.891 27.871 88.543h-93.453c-6.1836 0-11.199 5.0195-11.199 11.199 0 6.1836 5.0195 11.199 11.199 11.199h45.266c-1.4531 15.176-1.8828 41.715 6.6523 73.738z"/>
  <path d="m541.24 451.68c17.758 0 32.199-14.449 32.199-32.199 0-17.754-14.441-32.199-32.199-32.199-17.758 0-32.199 14.449-32.199 32.199s14.441 32.199 32.199 32.199zm0-42c5.4023 0 9.8008 4.3945 9.8008 9.8008 0 5.4023-4.3945 9.8008-9.8008 9.8008-5.4023 0-9.8008-4.3945-9.8008-9.8008 0.003906-5.4062 4.4023-9.8008 9.8008-9.8008z"/>
  <path d="m288.42 485.74c18.562 0 33.672-15.102 33.672-33.672 0-18.562-15.102-33.668-33.672-33.668-18.562 0-33.668 15.102-33.668 33.668 0 18.57 15.105 33.672 33.668 33.672zm0-44.938c6.2148 0 11.273 5.0586 11.273 11.266 0 6.2148-5.0586 11.273-11.273 11.273-6.2109 0-11.266-5.0586-11.266-11.273 0-6.2109 5.0547-11.266 11.266-11.266z"/>
  <path d="m493.7 450.52c0-23.289-18.945-42.234-42.23-42.234s-42.234 18.945-42.234 42.234c0 23.285 18.949 42.234 42.234 42.234s42.23-18.949 42.23-42.234zm-62.066 0c0-10.938 8.8984-19.836 19.836-19.836 10.93 0 19.828 8.8984 19.828 19.836s-8.8984 19.836-19.828 19.836c-10.938-0.007812-19.836-8.9062-19.836-19.836z"/>
  <path d="m367.98 461.5c0.39063 0.61719 0.89453 1.2305 1.3984 1.7344 0.50391 0.50391 1.0586 0.95312 1.6797 1.3984 0.61719 0.39062 1.2891 0.72656 1.9609 1.0078s1.3984 0.50391 2.0703 0.61719c0.72656 0.16797 1.4609 0.22266 2.2383 0.22266 2.9102 0 5.8242-1.1758 7.8945-3.2461 2.0703-2.1289 3.2461-4.9844 3.2461-7.9531 0-2.9102-1.1758-5.8242-3.2461-7.8945-0.50391-0.50391-1.1211-1.0078-1.7422-1.3984-0.55859-0.39062-1.2305-0.72656-1.9023-1.0078s-1.3984-0.50391-2.0703-0.67187c-3.6953-0.72656-7.5586 0.50391-10.137 3.0781-2.0703 2.0703-3.3047 4.9297-3.3047 7.8945 0 0.72656 0.11328 1.5117 0.22266 2.1836 0.16406 0.72656 0.38672 1.457 0.67188 2.1289 0.28906 0.67578 0.62891 1.3477 1.0195 1.9062z"/>
  <path d="m178.25 390.38c-0.39062-0.61719-0.89453-1.1758-1.3984-1.6797-2.5742-2.5742-6.4414-3.8086-10.078-3.0781-0.72656 0.16797-1.457 0.39062-2.1289 0.67187s-1.2891 0.61719-1.9023 1.0078c-0.61719 0.39062-1.2305 0.89453-1.7344 1.3984-0.50391 0.50391-0.95312 1.0625-1.3984 1.6797-0.39062 0.61719-0.72656 1.2891-1.0078 1.9609-0.28125 0.67187-0.50391 1.3984-0.61719 2.0703-0.16797 0.72656-0.22266 1.457-0.22266 2.1836 0 0.72656 0.054688 1.5117 0.22266 2.1836 0.11328 0.72656 0.33594 1.457 0.61719 2.1289s0.61719 1.3438 1.0078 1.9023c0.44922 0.61719 0.89453 1.2305 1.3984 1.7344 0.50391 0.50391 1.1211 0.95313 1.7344 1.3984 0.61719 0.39062 1.2305 0.72656 1.9023 1.0078s1.3984 0.50391 2.1289 0.61719c0.67188 0.16797 1.457 0.22266 2.1836 0.22266 2.9102 0 5.8242-1.1758 7.8945-3.2461 0.50391-0.50391 1.0078-1.1211 1.3984-1.7344 0.39062-0.55859 0.72656-1.2305 1.0078-1.9023s0.50391-1.3984 0.67188-2.1289c0.11328-0.67188 0.22266-1.457 0.22266-2.1836 0-0.72656-0.11328-1.457-0.22266-2.1836-0.16797-0.67188-0.39062-1.3984-0.67188-2.0703-0.27734-0.67188-0.61328-1.3438-1.0078-1.9609z"/>
 </g>
</svg>
