<?xml version="1.0" encoding="UTF-8"?>
<svg width="100%" height="100%" version="1.1" fill="#444444" viewBox="0 0 700 700" xmlns="http://www.w3.org/2000/svg" xmlns:xlink="http://www.w3.org/1999/xlink">
 <defs>
  <symbol id="h" overflow="visible">
   <path d="m14.656-0.875c-0.76172 0.39844-1.5547 0.69531-2.375 0.89062-0.8125 0.19531-1.6641 0.29688-2.5469 0.29688-2.6562 0-4.7617-0.73828-6.3125-2.2188-1.5547-1.4883-2.3281-3.5039-2.3281-6.0469 0-2.5508 0.77344-4.5664 2.3281-6.0469 1.5508-1.4883 3.6562-2.2344 6.3125-2.2344 0.88281 0 1.7344 0.10156 2.5469 0.29688 0.82031 0.19922 1.6133 0.49609 2.375 0.89062v3.2969c-0.76172-0.51953-1.5117-0.89844-2.25-1.1406-0.74219-0.23828-1.5234-0.35938-2.3438-0.35938-1.4688 0-2.625 0.46875-3.4688 1.4062-0.83594 0.9375-1.25 2.2344-1.25 3.8906 0 1.6484 0.41406 2.9375 1.25 3.875 0.84375 0.9375 2 1.4062 3.4688 1.4062 0.82031 0 1.6016-0.11719 2.3438-0.35938 0.73828-0.23828 1.4883-0.61719 2.25-1.1406z"/>
  </symbol>
  <symbol id="c" overflow="visible">
   <path d="m10.719-8.7031c-0.33594-0.15625-0.66797-0.26953-1-0.34375-0.32422-0.082031-0.65625-0.125-1-0.125-0.98047 0-1.7344 0.32031-2.2656 0.95312-0.53125 0.625-0.79688 1.5273-0.79688 2.7031v5.5156h-3.8125v-11.969h3.8125v1.9688c0.48828-0.78125 1.0508-1.3477 1.6875-1.7031 0.64453-0.36328 1.4102-0.54688 2.2969-0.54688 0.13281 0 0.27344 0.007812 0.42188 0.015625 0.14453 0.011719 0.36328 0.03125 0.65625 0.0625z"/>
  </symbol>
  <symbol id="a" overflow="visible">
   <path d="m13.781-6.0156v1.0938h-8.9375c0.09375 0.89844 0.41406 1.5703 0.96875 2.0156 0.55078 0.44922 1.3281 0.67188 2.3281 0.67188 0.80078 0 1.625-0.11719 2.4688-0.35938 0.84375-0.23828 1.7109-0.59766 2.6094-1.0781v2.9531c-0.90625 0.33594-1.8125 0.58984-2.7188 0.76562s-1.8125 0.26562-2.7188 0.26562c-2.1562 0-3.8398-0.54688-5.0469-1.6406-1.1992-1.1016-1.7969-2.6484-1.7969-4.6406 0-1.9453 0.58594-3.4766 1.7656-4.5938 1.1758-1.125 2.8008-1.6875 4.875-1.6875 1.875 0 3.375 0.57031 4.5 1.7031 1.1328 1.125 1.7031 2.6367 1.7031 4.5312zm-3.9375-1.2656c0-0.72656-0.21484-1.3125-0.64062-1.75-0.41797-0.44531-0.96875-0.67188-1.6562-0.67188-0.74219 0-1.3438 0.21094-1.8125 0.625-0.46094 0.41797-0.74609 1.0156-0.85938 1.7969z"/>
  </symbol>
  <symbol id="m" overflow="visible">
   <path d="m7.2031-5.3906c-0.80469 0-1.4062 0.13672-1.8125 0.40625-0.39844 0.27344-0.59375 0.67188-0.59375 1.2031 0 0.48047 0.16016 0.85938 0.48438 1.1406 0.32031 0.27344 0.77344 0.40625 1.3594 0.40625 0.71875 0 1.3203-0.25391 1.8125-0.76562 0.48828-0.51953 0.73438-1.1719 0.73438-1.9531v-0.4375zm5.8438-1.4375v6.8281h-3.8594v-1.7656c-0.51172 0.71875-1.0898 1.2461-1.7344 1.5781-0.63672 0.33203-1.418 0.5-2.3438 0.5-1.2422 0-2.2461-0.35938-3.0156-1.0781-0.77344-0.72656-1.1562-1.6719-1.1562-2.8281 0-1.3945 0.47656-2.4219 1.4375-3.0781 0.96875-0.65625 2.4883-0.98438 4.5625-0.98438h2.25v-0.29688c0-0.60156-0.24219-1.0469-0.71875-1.3281-0.48047-0.28125-1.2266-0.42188-2.2344-0.42188-0.8125 0-1.5742 0.085937-2.2812 0.25-0.71094 0.15625-1.3672 0.40234-1.9688 0.73438v-2.9219c0.82031-0.19531 1.6445-0.34766 2.4688-0.45312 0.82031-0.10156 1.6484-0.15625 2.4844-0.15625 2.1562 0 3.7109 0.42969 4.6719 1.2812 0.95703 0.84375 1.4375 2.2266 1.4375 4.1406z"/>
  </symbol>
  <symbol id="b" overflow="visible">
   <path d="m6.0156-15.359v3.3906h3.9375v2.7344h-3.9375v5.0781c0 0.55469 0.10938 0.92969 0.32812 1.125 0.21875 0.19922 0.65625 0.29688 1.3125 0.29688h1.9688v2.7344h-3.2812c-1.5117 0-2.5859-0.3125-3.2188-0.9375-0.625-0.63281-0.9375-1.707-0.9375-3.2188v-5.0781h-1.9062v-2.7344h1.9062v-3.3906z"/>
  </symbol>
  <symbol id="l" overflow="visible">
   <path d="m9.9688-10.219v-6.4062h3.8594v16.625h-3.8594v-1.7344c-0.52344 0.71094-1.1016 1.2305-1.7344 1.5625-0.63672 0.32031-1.3711 0.48438-2.2031 0.48438-1.4688 0-2.6797-0.58203-3.625-1.75-0.94922-1.1758-1.4219-2.6875-1.4219-4.5312s0.47266-3.3477 1.4219-4.5156c0.94531-1.1758 2.1562-1.7656 3.625-1.7656 0.83203 0 1.5664 0.16797 2.2031 0.5 0.63281 0.32422 1.2109 0.83594 1.7344 1.5312zm-2.5156 7.75c0.82031 0 1.4453-0.29688 1.875-0.89062 0.42578-0.60156 0.64062-1.4727 0.64062-2.6094 0-1.1445-0.21484-2.0156-0.64062-2.6094-0.42969-0.59375-1.0547-0.89062-1.875-0.89062-0.8125 0-1.4336 0.29688-1.8594 0.89062-0.42969 0.59375-0.64062 1.4648-0.64062 2.6094 0 1.1367 0.21094 2.0078 0.64062 2.6094 0.42578 0.59375 1.0469 0.89062 1.8594 0.89062z"/>
  </symbol>
  <symbol id="k" overflow="visible">
   <path d="m8.2031-2.4688c0.82031 0 1.4453-0.29688 1.875-0.89062 0.42578-0.60156 0.64062-1.4727 0.64062-2.6094 0-1.1445-0.21484-2.0156-0.64062-2.6094-0.42969-0.59375-1.0547-0.89062-1.875-0.89062-0.82422 0-1.4531 0.30469-1.8906 0.90625-0.4375 0.59375-0.65625 1.4609-0.65625 2.5938 0 1.1367 0.21875 2.0078 0.65625 2.6094 0.4375 0.59375 1.0664 0.89062 1.8906 0.89062zm-2.5469-7.75c0.53125-0.69531 1.1133-1.207 1.75-1.5312 0.64453-0.33203 1.3828-0.5 2.2188-0.5 1.4688 0 2.6758 0.58984 3.625 1.7656 0.94531 1.168 1.4219 2.6719 1.4219 4.5156s-0.47656 3.3555-1.4219 4.5312c-0.94922 1.168-2.1562 1.75-3.625 1.75-0.83594 0-1.5742-0.16797-2.2188-0.5-0.63672-0.33203-1.2188-0.84766-1.75-1.5469v1.7344h-3.8125v-16.625h3.8125z"/>
  </symbol>
  <symbol id="j" overflow="visible">
   <path d="m0.26562-11.969h3.8281l3.2188 8.125 2.7344-8.125h3.8125l-5.0312 13.094c-0.5 1.332-1.0898 2.2656-1.7656 2.7969-0.66797 0.53125-1.5547 0.79688-2.6562 0.79688h-2.2188v-2.5h1.2031c0.64453 0 1.1133-0.10547 1.4062-0.3125 0.30078-0.21094 0.53125-0.57812 0.6875-1.1094l0.10938-0.34375z"/>
  </symbol>
  <symbol id="i" overflow="visible">
   <path d="m0.65625-15.953h3.9375l2.75 11.594 2.7344-11.594h3.9688l2.7344 11.594 2.75-11.594h3.9062l-3.75 15.953h-4.75l-2.8906-12.125-2.8594 12.125h-4.75z"/>
  </symbol>
  <symbol id="g" overflow="visible">
   <path d="m2.0156-15.953h11.094v3.1094h-6.9844v2.9688h6.5625v3.1094h-6.5625v3.6562h7.2188v3.1094h-11.328z"/>
  </symbol>
  <symbol id="z" overflow="visible">
   <path d="m8.3906-9.7656c0.65625 0 1.1484-0.14062 1.4844-0.42188 0.33203-0.28906 0.5-0.71094 0.5-1.2656 0-0.55078-0.16797-0.97266-0.5-1.2656-0.33594-0.28906-0.82812-0.4375-1.4844-0.4375h-2.2656v3.3906zm0.14062 6.9688c0.82031 0 1.4414-0.17188 1.8594-0.51562 0.41406-0.35156 0.625-0.88281 0.625-1.5938 0-0.6875-0.21094-1.2031-0.625-1.5469-0.40625-0.34375-1.0273-0.51562-1.8594-0.51562h-2.4062v4.1719zm3.8281-5.7344c0.88281 0.25 1.5664 0.72656 2.0469 1.4219 0.48828 0.6875 0.73438 1.5312 0.73438 2.5312 0 1.543-0.52344 2.6953-1.5625 3.4531-1.043 0.75-2.625 1.125-4.75 1.125h-6.8125v-15.953h6.1719c2.207 0 3.8047 0.33984 4.7969 1.0156 1 0.66797 1.5 1.7344 1.5 3.2031 0 0.78125-0.18359 1.4492-0.54688 2-0.36719 0.54297-0.89062 0.94531-1.5781 1.2031z"/>
  </symbol>
  <symbol id="y" overflow="visible">
   <path d="m0.10938-15.953h14.688v3.1094h-5.2812v12.844h-4.1094v-12.844h-5.2969z"/>
  </symbol>
  <symbol id="x" overflow="visible">
   <path d="m2.0156-15.953h4.1094v6.0781h6.0625v-6.0781h4.1094v15.953h-4.1094v-6.7656h-6.0625v6.7656h-4.1094z"/>
  </symbol>
  <symbol id="w" overflow="visible">
   <path d="m9.2969-13.25c-1.2617 0-2.2344 0.46484-2.9219 1.3906-0.6875 0.91797-1.0312 2.2188-1.0312 3.9062 0 1.668 0.34375 2.9648 1.0312 3.8906 0.6875 0.92969 1.6602 1.3906 2.9219 1.3906 1.2578 0 2.2344-0.46094 2.9219-1.3906 0.6875-0.92578 1.0312-2.2227 1.0312-3.8906 0-1.6875-0.34375-2.9883-1.0312-3.9062-0.6875-0.92578-1.6641-1.3906-2.9219-1.3906zm0-2.9844c2.5625 0 4.5664 0.73438 6.0156 2.2031 1.457 1.4688 2.1875 3.4961 2.1875 6.0781 0 2.5742-0.73047 4.5938-2.1875 6.0625-1.4492 1.4688-3.4531 2.2031-6.0156 2.2031s-4.5742-0.73438-6.0312-2.2031c-1.4492-1.4688-2.1719-3.4883-2.1719-6.0625 0-2.582 0.72266-4.6094 2.1719-6.0781 1.457-1.4688 3.4688-2.2031 6.0312-2.2031z"/>
  </symbol>
  <symbol id="e" overflow="visible">
   <path d="m2.0156-15.953h6.8125c2.0312 0 3.5859 0.45312 4.6719 1.3594 1.0938 0.89844 1.6406 2.1797 1.6406 3.8438 0 1.6797-0.54688 2.9688-1.6406 3.875-1.0859 0.89844-2.6406 1.3438-4.6719 1.3438h-2.7031v5.5312h-4.1094zm4.1094 2.9844v4.4531h2.2656c0.80078 0 1.4141-0.19141 1.8438-0.57812 0.4375-0.38281 0.65625-0.9375 0.65625-1.6562 0-0.70703-0.21875-1.2539-0.65625-1.6406-0.42969-0.38281-1.043-0.57812-1.8438-0.57812z"/>
  </symbol>
  <symbol id="v" overflow="visible">
   <path d="m13.109-15.438v3.375c-0.875-0.39453-1.7305-0.69141-2.5625-0.89062-0.83594-0.19531-1.6211-0.29688-2.3594-0.29688-0.99219 0-1.7188 0.13672-2.1875 0.40625-0.46875 0.27344-0.70312 0.6875-0.70312 1.25 0 0.42969 0.15625 0.76172 0.46875 1 0.32031 0.24219 0.89844 0.44922 1.7344 0.625l1.75 0.34375c1.7695 0.35547 3.0312 0.89844 3.7812 1.625 0.75 0.73047 1.125 1.7617 1.125 3.0938 0 1.7617-0.52734 3.0742-1.5781 3.9375-1.043 0.85547-2.6328 1.2812-4.7656 1.2812-1.0117 0-2.0273-0.10156-3.0469-0.29688-1.0234-0.1875-2.043-0.46875-3.0625-0.84375v-3.4688c1.0195 0.53125 2.0039 0.9375 2.9531 1.2188 0.95703 0.27344 1.875 0.40625 2.75 0.40625 0.90625 0 1.5938-0.14453 2.0625-0.4375 0.47656-0.30078 0.71875-0.73438 0.71875-1.2969 0-0.48828-0.16406-0.86719-0.48438-1.1406-0.32422-0.26953-0.96875-0.51562-1.9375-0.73438l-1.5938-0.35938c-1.5938-0.33203-2.7617-0.875-3.5-1.625-0.74219-0.75-1.1094-1.7578-1.1094-3.0312 0-1.582 0.50781-2.8008 1.5312-3.6562 1.0312-0.85156 2.5078-1.2812 4.4375-1.2812 0.875 0 1.7734 0.070313 2.7031 0.20312 0.92578 0.125 1.8828 0.32422 2.875 0.59375z"/>
  </symbol>
  <symbol id="f" overflow="visible">
   <path d="m2.0156-15.953h4.1094v12.844h7.2188v3.1094h-11.328z"/>
  </symbol>
  <symbol id="u" overflow="visible">
   <path d="m9.7031-16.625v2.5156h-2.1094c-0.54297 0-0.92188 0.10156-1.1406 0.29688-0.21094 0.19922-0.3125 0.53906-0.3125 1.0156v0.82812h3.2656v2.7344h-3.2656v9.2344h-3.8281v-9.2344h-1.8906v-2.7344h1.8906v-0.82812c0-1.3008 0.36328-2.2656 1.0938-2.8906 0.72656-0.625 1.8516-0.9375 3.375-0.9375z"/>
  </symbol>
  <symbol id="d" overflow="visible">
   <path d="m7.5312-9.5156c-0.84375 0-1.4922 0.30859-1.9375 0.92188-0.44922 0.60547-0.67188 1.4805-0.67188 2.625 0 1.1484 0.22266 2.0273 0.67188 2.6406 0.44531 0.60547 1.0938 0.90625 1.9375 0.90625 0.83203 0 1.4688-0.30078 1.9062-0.90625 0.44531-0.61328 0.67188-1.4922 0.67188-2.6406 0-1.1445-0.22656-2.0195-0.67188-2.625-0.4375-0.61328-1.0742-0.92188-1.9062-0.92188zm0-2.7344c2.0508 0 3.6562 0.55859 4.8125 1.6719 1.1641 1.1055 1.75 2.6406 1.75 4.6094s-0.58594 3.5117-1.75 4.625c-1.1562 1.1055-2.7617 1.6562-4.8125 1.6562-2.0625 0-3.6797-0.55078-4.8438-1.6562-1.168-1.1133-1.75-2.6562-1.75-4.625s0.58203-3.5039 1.75-4.6094c1.1641-1.1133 2.7812-1.6719 4.8438-1.6719z"/>
  </symbol>
  <symbol id="t" overflow="visible">
   <path d="m12.922-9.9688c0.48828-0.75 1.0625-1.3164 1.7188-1.7031 0.66406-0.38281 1.3984-0.57812 2.2031-0.57812 1.375 0 2.4219 0.42969 3.1406 1.2812 0.71875 0.84375 1.0781 2.0742 1.0781 3.6875v7.2812h-3.8438v-6.2344c0.007812-0.09375 0.015625-0.1875 0.015625-0.28125v-0.4375c0-0.84375-0.125-1.457-0.375-1.8438-0.25-0.38281-0.65234-0.57812-1.2031-0.57812-0.73047 0-1.293 0.30469-1.6875 0.90625-0.38672 0.59375-0.58984 1.4609-0.60938 2.5938v5.875h-3.8438v-6.2344c0-1.3203-0.11719-2.1758-0.34375-2.5625-0.23047-0.38281-0.63672-0.57812-1.2188-0.57812-0.73047 0-1.2969 0.30469-1.7031 0.90625-0.39844 0.60547-0.59375 1.4648-0.59375 2.5781v5.8906h-3.8438v-11.969h3.8438v1.75c0.46875-0.66406 1.0039-1.1719 1.6094-1.5156 0.61328-0.34375 1.2891-0.51562 2.0312-0.51562 0.82031 0 1.5508 0.19922 2.1875 0.59375 0.63281 0.39844 1.1133 0.96094 1.4375 1.6875z"/>
  </symbol>
  <symbol id="s" overflow="visible">
   <path d="m13.859-7.2812v7.2812h-3.8438v-5.5469c0-1.0508-0.027344-1.7695-0.078125-2.1562-0.042969-0.39453-0.12109-0.6875-0.23438-0.875-0.14844-0.25-0.35156-0.44141-0.60938-0.57812-0.25-0.14453-0.54297-0.21875-0.875-0.21875-0.79297 0-1.418 0.3125-1.875 0.9375-0.46094 0.61719-0.6875 1.4648-0.6875 2.5469v5.8906h-3.8125v-16.625h3.8125v6.4062c0.58203-0.69531 1.1953-1.207 1.8438-1.5312 0.64453-0.33203 1.3594-0.5 2.1406-0.5 1.3828 0 2.4297 0.42969 3.1406 1.2812 0.71875 0.84375 1.0781 2.0742 1.0781 3.6875z"/>
  </symbol>
  <symbol id="r" overflow="visible">
   <path d="m2.0156-15.953h4.5781l5.8125 10.938v-10.938h3.8906v15.953h-4.5938l-5.7969-10.938v10.938h-3.8906z"/>
  </symbol>
  <symbol id="q" overflow="visible">
   <path d="m1.7031-4.6562v-7.3125h3.8438v1.2031c0 0.64844-0.007813 1.4609-0.015625 2.4375v1.9688c0 0.96094 0.023438 1.6523 0.078125 2.0781 0.050781 0.41797 0.13281 0.72656 0.25 0.92188 0.15625 0.25 0.35938 0.44531 0.60938 0.57812 0.25781 0.13672 0.55078 0.20312 0.875 0.20312 0.80078 0 1.4258-0.30469 1.875-0.92188 0.45703-0.61328 0.6875-1.4688 0.6875-2.5625v-5.9062h3.8281v11.969h-3.8281v-1.7344c-0.57422 0.69922-1.1836 1.2148-1.8281 1.5469-0.64844 0.33203-1.3555 0.5-2.125 0.5-1.3867 0-2.4453-0.42188-3.1719-1.2656-0.71875-0.85156-1.0781-2.0859-1.0781-3.7031z"/>
  </symbol>
  <symbol id="p" overflow="visible">
   <path d="m13.859-7.2812v7.2812h-3.8438v-5.5781c0-1.0312-0.027344-1.7383-0.078125-2.125-0.042969-0.39453-0.12109-0.6875-0.23438-0.875-0.14844-0.25-0.35156-0.44141-0.60938-0.57812-0.25-0.14453-0.54297-0.21875-0.875-0.21875-0.79297 0-1.418 0.3125-1.875 0.9375-0.46094 0.61719-0.6875 1.4648-0.6875 2.5469v5.8906h-3.8125v-11.969h3.8125v1.75c0.58203-0.69531 1.1953-1.207 1.8438-1.5312 0.64453-0.33203 1.3594-0.5 2.1406-0.5 1.3828 0 2.4297 0.42969 3.1406 1.2812 0.71875 0.84375 1.0781 2.0742 1.0781 3.6875z"/>
  </symbol>
  <symbol id="o" overflow="visible">
   <path d="m1.8438-11.969h3.8125v11.75c0 1.6016-0.38672 2.8281-1.1562 3.6719-0.76172 0.84375-1.8711 1.2656-3.3281 1.2656h-1.8906v-2.5h0.65625c0.72656 0 1.2266-0.16797 1.5-0.5 0.26953-0.32422 0.40625-0.96875 0.40625-1.9375zm0-4.6562h3.8125v3.125h-3.8125z"/>
  </symbol>
  <symbol id="n" overflow="visible">
   <path d="m11.5-11.594v3.125c-0.52344-0.35156-1.043-0.61328-1.5625-0.78125-0.52344-0.17578-1.0625-0.26562-1.625-0.26562-1.0742 0-1.9062 0.3125-2.5 0.9375s-0.89062 1.4961-0.89062 2.6094c0 1.1172 0.29688 1.9844 0.89062 2.6094s1.4258 0.9375 2.5 0.9375c0.59375 0 1.1562-0.085937 1.6875-0.26562 0.53906-0.17578 1.0391-0.44141 1.5-0.79688v3.125c-0.59375 0.23047-1.1992 0.39453-1.8125 0.5-0.61719 0.11328-1.2344 0.17188-1.8594 0.17188-2.1562 0-3.8438-0.55078-5.0625-1.6562-1.2188-1.1133-1.8281-2.6562-1.8281-4.625s0.60938-3.5039 1.8281-4.6094c1.2188-1.1133 2.9062-1.6719 5.0625-1.6719 0.625 0 1.2383 0.058594 1.8438 0.17188 0.61328 0.10547 1.2227 0.26562 1.8281 0.48438z"/>
  </symbol>
 </defs>
 <g>
  <path d="m498.75 105.48c0 4.8594-3.918 8.793-8.75 8.793s-8.75-3.9336-8.75-8.793c0-4.8555 3.918-8.793 8.75-8.793s8.75 3.9375 8.75 8.793"/>
  <path d="m533.75 17.586c0 4.8594-3.918 8.7969-8.75 8.7969s-8.75-3.9375-8.75-8.7969c0-4.8555 3.918-8.793 8.75-8.793s8.75 3.9375 8.75 8.793"/>
  <path d="m573.12 92.312c7.8164 0 15.035-4.168 18.945-10.938 3.9062-6.7695 3.9062-15.105 0-21.875-3.9102-6.7695-11.129-10.938-18.945-10.938s-15.035 4.168-18.945 10.938c-3.9062 6.7695-3.9062 15.105 0 21.875 3.9102 6.7695 11.129 10.938 18.945 10.938zm0-26.25c2.418 0 4.375 1.957 4.375 4.375s-1.957 4.375-4.375 4.375-4.375-1.957-4.375-4.375 1.957-4.375 4.375-4.375z"/>
  <path d="m630 8.793c0 4.8594-3.918 8.793-8.75 8.793s-8.75-3.9336-8.75-8.793c0-4.8555 3.918-8.793 8.75-8.793s8.75 3.9375 8.75 8.793"/>
  <path d="m621.25 445.73c-11.465-0.22266-22.68 3.3633-31.895 10.191-6.4844 4.7969-14.336 7.3828-22.398 7.3828-8.0664 0-15.918-2.5859-22.402-7.3828-9.3008-6.6328-20.445-10.195-31.871-10.195-11.426 0-22.566 3.5625-31.871 10.195-6.4727 4.8008-14.32 7.3906-22.379 7.3906s-15.902-2.5898-22.379-7.3906c-9.3008-6.6328-20.445-10.195-31.871-10.195-11.426 0-22.566 3.5625-31.871 10.195-6.4727 4.8008-14.32 7.3906-22.379 7.3906s-15.902-2.5898-22.379-7.3906c-9.3008-6.6328-20.445-10.195-31.871-10.195-11.426 0-22.566 3.5625-31.871 10.195-6.4727 4.8008-14.32 7.3906-22.379 7.3906s-15.902-2.5898-22.379-7.3906c-9.1992-6.8203-20.398-10.406-31.848-10.191-11.453-0.21484-22.652 3.3711-31.852 10.191-6.375 4.9727-14.273 7.5859-22.355 7.3945-8.0977 0.20312-16.016-2.4102-22.398-7.3945-9.1992-6.8203-20.398-10.406-31.852-10.191-4.832 0-8.75 3.9141-8.75 8.75 0 4.832 3.918 8.75 8.75 8.75 8.0977-0.20312 16.016 2.4102 22.398 7.3906 9.1992 6.8242 20.398 10.41 31.852 10.195 11.453 0.21484 22.652-3.3711 31.852-10.195 6.3711-4.9727 14.273-7.582 22.355-7.3906 8.082-0.19141 15.98 2.418 22.355 7.3906 9.1992 6.8242 20.398 10.41 31.852 10.195 11.449 0.21484 22.648-3.3711 31.848-10.195 6.4766-4.7969 14.32-7.3867 22.379-7.3867s15.902 2.5898 22.379 7.3867c9.3008 6.625 20.434 10.184 31.848 10.184 11.418 0 22.551-3.5586 31.852-10.184 6.4727-4.7969 14.32-7.3867 22.379-7.3867s15.902 2.5898 22.379 7.3867c9.3008 6.6328 20.445 10.199 31.871 10.199 11.426 0 22.566-3.5664 31.871-10.199 6.4766-4.7891 14.32-7.375 22.379-7.375 8.0547 0 15.898 2.5859 22.379 7.375 9.3086 6.6367 20.457 10.203 31.891 10.203 11.434 0 22.586-3.5664 31.895-10.203 6.4336-4.9492 14.375-7.5312 22.488-7.3047 4.832 0 8.75-3.918 8.75-8.75s-3.918-8.75-8.75-8.75z"/>
  <path d="m621.25 485.27c-11.465-0.21875-22.68 3.3672-31.895 10.195-6.4844 4.7969-14.336 7.3828-22.398 7.3828-8.0664 0-15.918-2.5859-22.402-7.3828-9.3008-6.6328-20.445-10.199-31.871-10.199-11.426 0-22.566 3.5664-31.871 10.199-6.4727 4.7969-14.32 7.3906-22.379 7.3906s-15.902-2.5938-22.379-7.3906c-9.3008-6.6328-20.445-10.199-31.871-10.199-11.426 0-22.566 3.5664-31.871 10.199-6.4727 4.7969-14.32 7.3906-22.379 7.3906s-15.902-2.5938-22.379-7.3906c-9.3008-6.6328-20.445-10.199-31.871-10.199-11.426 0-22.566 3.5664-31.871 10.199-6.4727 4.7969-14.32 7.3906-22.379 7.3906s-15.902-2.5938-22.379-7.3906c-9.1992-6.8242-20.398-10.406-31.848-10.195-11.453-0.21094-22.652 3.3711-31.852 10.195-6.375 4.9727-14.273 7.5859-22.355 7.3945-8.0977 0.19922-16.016-2.4141-22.398-7.3945-9.1992-6.8242-20.398-10.406-31.852-10.195-4.832 0-8.75 3.918-8.75 8.75 0 4.8359 3.918 8.75 8.75 8.75 8.0977-0.19922 16.016 2.4141 22.398 7.3945 9.168 6.918 20.371 10.594 31.852 10.457 11.453 0.21484 22.652-3.3711 31.852-10.195 6.3711-4.9727 14.273-7.582 22.355-7.3906 8.082-0.19141 15.98 2.418 22.355 7.3906 9.2109 6.832 20.426 10.418 31.895 10.195 11.449 0.21484 22.648-3.3711 31.848-10.195 6.4766-4.7969 14.32-7.3867 22.379-7.3867s15.906 2.5898 22.379 7.3867c9.3008 6.625 20.434 10.184 31.852 10.184 11.414 0 22.547-3.5586 31.848-10.184 6.4766-4.7969 14.32-7.3867 22.379-7.3867s15.902 2.5898 22.379 7.3867c9.3047 6.6328 20.445 10.199 31.871 10.199s22.566-3.5664 31.871-10.199c6.4766-4.7891 14.32-7.375 22.379-7.375s15.902 2.5859 22.379 7.375c9.3086 6.6367 20.461 10.203 31.895 10.203 11.434 0 22.582-3.5664 31.891-10.203 6.3984-4.9609 14.309-7.5703 22.402-7.3906 4.832 0 8.75-3.918 8.75-8.75 0-4.8359-3.918-8.75-8.75-8.75z"/>
  <path d="m621.25 525c-11.465-0.21875-22.68 3.3633-31.895 10.195-6.4844 4.793-14.336 7.3828-22.398 7.3828-8.0664 0-15.918-2.5898-22.402-7.3828-9.3008-6.6328-20.445-10.199-31.871-10.199-11.426 0-22.566 3.5664-31.871 10.199-6.4727 4.7969-14.32 7.3867-22.379 7.3867s-15.902-2.5898-22.379-7.3867c-9.3008-6.6328-20.445-10.199-31.871-10.199-11.426 0-22.566 3.5664-31.871 10.199-6.4727 4.7969-14.32 7.3867-22.379 7.3867s-15.902-2.5898-22.379-7.3867c-9.3008-6.6328-20.445-10.199-31.871-10.199-11.426 0-22.566 3.5664-31.871 10.199-6.4727 4.7969-14.32 7.3867-22.379 7.3867s-15.902-2.5898-22.379-7.3867c-9.1875-6.8164-20.367-10.398-31.805-10.195-11.453-0.21484-22.652 3.3711-31.852 10.195-6.3945 4.9492-14.312 7.5312-22.398 7.3047-8.0977 0.20312-16.016-2.4102-22.398-7.3945-9.2109-6.7891-20.41-10.344-31.852-10.105-4.832 0-8.75 3.918-8.75 8.75s3.918 8.75 8.75 8.75c8.0977-0.20312 16.016 2.4102 22.398 7.3945 9.2109 6.7891 20.41 10.344 31.852 10.105 11.453 0.21484 22.652-3.3711 31.852-10.195 6.3945-4.9492 14.312-7.5312 22.398-7.3047 8.082-0.19141 15.98 2.4219 22.355 7.3945 9.2109 6.7891 20.41 10.344 31.852 10.105 11.449 0.21484 22.648-3.3711 31.848-10.195 6.4766-4.7969 14.32-7.3867 22.379-7.3867s15.906 2.5898 22.379 7.3867c9.3008 6.625 20.434 10.184 31.852 10.184 11.414 0 22.547-3.5586 31.848-10.184 6.4766-4.7969 14.32-7.3867 22.379-7.3867s15.902 2.5898 22.379 7.3867c9.3047 6.6328 20.445 10.199 31.871 10.199s22.566-3.5664 31.871-10.199c6.4766-4.7891 14.32-7.375 22.379-7.375s15.902 2.5859 22.379 7.375c9.3086 6.6367 20.461 10.203 31.895 10.203 11.434 0 22.582-3.5664 31.891-10.203 6.4219-4.9414 14.348-7.5195 22.445-7.3047 4.832 0 8.75-3.918 8.75-8.75s-3.918-8.75-8.75-8.75z"/>
  <path d="m202.04 42.48h0.96094c4.4961 0.027343 8.2773-3.3594 8.75-7.832l2.625-24.891c0.53125-4.8359-2.9531-9.1836-7.7891-9.7148-4.832-0.53125-9.1797 2.957-9.7109 7.7891l-2.7109 24.938c-0.26953 2.3359 0.41406 4.6836 1.8945 6.5117 1.4805 1.8281 3.6367 2.9805 5.9805 3.1992z"/>
  <path d="m121.89 59.367c1.5039 1.7734 3.6484 2.8711 5.9609 3.0625 2.3125 0.1875 4.6094-0.55078 6.3789-2.0547 3.6289-3.1211 4.0781-8.5781 1.0039-12.25l-16.711-19.906c-1.5039-1.7695-3.6484-2.8711-5.9609-3.0586-2.3125-0.19141-4.6094 0.55078-6.3789 2.0508-1.8203 1.4805-2.9727 3.6289-3.1953 5.9648-0.22266 2.3398 0.50391 4.6641 2.0156 6.4609z"/>
  <path d="m271.25 78.75c1.8945 0 3.7344-0.61328 5.25-1.75l20.648-15.75c1.8633-1.3984 3.0898-3.4844 3.4102-5.793 0.32031-2.3086-0.29297-4.6484-1.7031-6.5-2.8984-3.8672-8.3828-4.6484-12.25-1.75l-20.52 15.531c-1.8594 1.3984-3.0898 3.4844-3.4102 5.793-0.32031 2.3047 0.29297 4.6445 1.707 6.5 1.5781 2.25 4.1211 3.625 6.8672 3.7188z"/>
  <path d="m155.23 39.375c1.4492 4.6133 6.3633 7.1797 10.98 5.7305 4.6133-1.4492 7.1797-6.3672 5.7305-10.98l-7.5703-24.324c-1.4492-4.6172-6.3633-7.1836-10.98-5.7305-4.6133 1.4492-7.1797 6.3633-5.7305 10.98z"/>
  <path d="m236.64 53.113c4.1797 2.4102 9.5234 0.98047 11.941-3.1953l12.645-21.875c1.2812-2.0117 1.6836-4.457 1.1172-6.7734-0.57031-2.3164-2.0586-4.3008-4.1211-5.4961-2.0664-1.1914-4.5273-1.4922-6.8164-0.82813-2.293 0.66406-4.2109 2.2344-5.3164 4.3477l-12.645 21.875c-2.4102 4.1797-0.98047 9.5273 3.1953 11.945z"/>
  <path d="m281.23 105c0.60156 2.25 2.0781 4.1641 4.0977 5.3203 2.0195 1.1602 4.418 1.4648 6.6641 0.84766l25.332-6.957c4.0273-1.7227 6.1602-6.1602 4.9883-10.383s-5.2852-6.9258-9.6289-6.3281l-25.332 6.957h0.003906c-4.5586 1.2773-7.2734 5.9492-6.125 10.543z"/>
  <path d="m74.855 80.062 23.539 11.812c4.3242 2.1484 9.5703 0.38672 11.723-3.9375 1.0625-2.082 1.25-4.5 0.51953-6.7188s-2.3203-4.0508-4.4102-5.0938l-23.582-11.812c-4.3516-2.1523-9.6172-0.36719-11.77 3.9805-2.1523 4.3516-0.36719 9.6172 3.9805 11.77z"/>
  <path d="m125.08 134.53c4.7617 0.51172 9.0547-2.8984 9.625-7.6562 1.5586-14.562 8.8867-27.891 20.344-37.012 11.797-9.3984 26.805-13.793 41.809-12.246 15 1.5469 28.797 8.9141 38.43 20.523 9.6289 11.605 14.324 26.523 13.078 41.555-0.25781 2.3086 0.41406 4.625 1.8672 6.4375 1.4531 1.8164 3.5664 2.9766 5.8789 3.2305h0.96094c4.4961 0.023438 8.2773-3.3633 8.75-7.832 1.8203-19.672-4.1797-39.266-16.703-54.543-12.527-15.281-30.562-25.008-50.211-27.082-19.645-2.0742-39.316 3.6758-54.754 16-15.094 12.043-24.734 29.625-26.773 48.824-0.29687 2.3242 0.35156 4.668 1.7969 6.5117 1.4492 1.8438 3.5742 3.0273 5.9023 3.2891z"/>
  <path d="m630 175.79c0-2.3203-0.92188-4.5469-2.5625-6.1875-1.6406-1.6406-3.8672-2.5625-6.1875-2.5625h-262.5c-0.60938-0.066406-1.2266-0.066406-1.8359 0-17.852 2.0547-26.25 33.688-26.555 63.875-87.195 31.805-100.15 104.91-101.5 136.59-6.1641-2.2812-12.723-3.3242-19.293-3.0625-2.3359 0.11328-4.5312 1.1562-6.0938 2.8984-1.5625 1.7461-2.3633 4.0391-2.2188 6.375 0.10156 2.3242 1.125 4.5078 2.8398 6.0742 1.7148 1.5703 3.9844 2.3906 6.3047 2.2852 8.1562 0.019532 16.105 2.5703 22.75 7.3047 2.8477 1.793 6.4688 1.793 9.3164 0 2.9727-1.8477 4.5547-5.2891 4.0273-8.75-0.39453-3.4141-6.6484-66.238 45.543-108.68-5.4375 7.9453-9.8477 16.543-13.125 25.594-16.844 46.508-1.0508 94.062 5.207 109.64-7.2812 1.6211-14.156 4.7031-20.215 9.0586-6.4727 4.7969-14.316 7.3867-22.375 7.3867-8.0586 0-15.906-2.5898-22.379-7.3867-9.1992-6.8242-20.398-10.406-31.852-10.195-11.449-0.21094-22.648 3.3711-31.848 10.195-6.375 4.9727-14.277 7.5859-22.359 7.3945-8.0977 0.19922-16.012-2.4141-22.398-7.3945-9.2383-6.7969-20.473-10.336-31.938-10.062-4.832 0-8.75 3.918-8.75 8.75s3.918 8.75 8.75 8.75c8.0977-0.20312 16.016 2.4102 22.398 7.3945 9.1992 6.8203 20.398 10.406 31.852 10.191 11.453 0.21484 22.652-3.3711 31.852-10.191 6.3711-4.9727 14.273-7.5859 22.355-7.3945 8.082-0.19141 15.98 2.4219 22.355 7.3945 9.1992 6.8203 20.398 10.406 31.852 10.191 11.449 0.21484 22.648-3.3711 31.848-10.191 6.4766-4.8008 14.32-7.3906 22.379-7.3906s15.902 2.5898 22.379 7.3906c9.3008 6.6211 20.434 10.18 31.848 10.18 11.418 0 22.551-3.5586 31.852-10.18 6.4727-4.8008 14.32-7.3906 22.379-7.3906s15.902 2.5898 22.379 7.3906c9.3008 6.6328 20.445 10.195 31.871 10.195 11.426 0 22.566-3.5625 31.871-10.195 6.4766-4.793 14.32-7.3789 22.379-7.3789 8.0547 0 15.898 2.5859 22.379 7.3789 9.3086 6.6367 20.457 10.203 31.891 10.203 11.434 0 22.586-3.5664 31.895-10.203 6.4336-4.9531 14.375-7.5312 22.488-7.3086 4.832 0 8.75-3.918 8.75-8.75s-3.918-8.75-8.75-8.75c-11.465-0.21875-22.68 3.3672-31.895 10.195-6.4844 4.793-14.336 7.3828-22.398 7.3828-8.0664 0-15.918-2.5898-22.402-7.3828-9.3008-6.6328-20.445-10.199-31.871-10.199-11.426 0-22.566 3.5664-31.871 10.199-6.4727 4.7969-14.32 7.3867-22.379 7.3867s-15.902-2.5898-22.379-7.3867c-9.3008-6.6328-20.445-10.199-31.871-10.199-11.426 0-22.566 3.5664-31.871 10.199-6.4727 4.7969-14.32 7.3867-22.379 7.3867s-15.902-2.5898-22.379-7.3867c-7.3125-5.3633-15.887-8.7383-24.891-9.8008-0.14062-0.54297-0.33203-1.0703-0.57031-1.5742-0.26172-0.52344-24.414-52.938-6.7812-101.41 7.1406-19.141 19.887-35.684 36.574-47.469 3.2383 22.227 11.332 40.992 24.98 42.57h246.84 0.003906c2.3203 0 4.5469 0.92188 6.1875 2.5625s2.5625 3.8672 2.5625 6.1875v49.219c0 4.832 3.918 8.75 8.75 8.75s8.75-3.918 8.75-8.75v-49.09c0-6.9609-2.7656-13.637-7.6875-18.559-4.9258-4.9258-11.602-7.6914-18.562-7.6914h-224.83c2.3945-5.6289 4.1992-11.496 5.3828-17.5h110.12c4.832 0 8.75-3.9141 8.75-8.75 0-4.832-3.918-8.75-8.75-8.75h-66.5c0.52344-5.6875 0.875-11.594 0.875-17.5 0.30859-14.801-1.6836-29.559-5.9062-43.75h198.41c2.4297 0.007812 4.7539-0.99609 6.4141-2.7734 1.6602-1.7773 2.5078-4.1641 2.3359-6.5859zm-251.12 8.75h24.852l0.21875 0.4375c3.543 5.3828 7.3047 21.305 7.3047 43.398-0.019531 5.8477-0.33984 11.688-0.96094 17.5h-23.625c0.35156-4.375 0.52344-8.75 0.52344-13.125 0.36328-16.441-2.4609-32.801-8.3125-48.168zm-20.867 56.391c3.9023-1.6953 6.0195-5.9531 5.0156-10.09-1.0039-4.1367-4.8398-6.9492-9.0859-6.6641h-1.6211l-4.1562 1.1367c1.1367-24.148 7.5234-38.062 10.762-40.688 3.543 2.8867 10.938 19.336 10.938 48.125s-7.3945 45.195-10.938 48.125c-2.9766-2.4492-8.75-14.438-10.414-35.262 2.9375-1.5312 6.1719-3.1523 9.5-4.6836z"/>
  <path d="m553.18 260.05c0 4.8555-3.918 8.793-8.75 8.793s-8.75-3.9375-8.75-8.793c0-4.8594 3.918-8.793 8.75-8.793s8.75 3.9336 8.75 8.793"/>
  <path d="m140 334.03c0 4.8555-3.918 8.793-8.75 8.793s-8.75-3.9375-8.75-8.793 3.918-8.793 8.75-8.793 8.75 3.9375 8.75 8.793"/>
  <path d="m188.12 308.39c0 4.8555-3.918 8.793-8.75 8.793s-8.75-3.9375-8.75-8.793c0-4.8594 3.918-8.793 8.75-8.793s8.75 3.9336 8.75 8.793"/>
  <path d="m321.56 329.66c0 4.8555-3.918 8.793-8.75 8.793s-8.75-3.9375-8.75-8.793 3.918-8.793 8.75-8.793 8.75 3.9375 8.75 8.793"/>
  <path d="m96.25 321.56c0 4.8555-3.918 8.793-8.75 8.793s-8.75-3.9375-8.75-8.793 3.918-8.793 8.75-8.793 8.75 3.9375 8.75 8.793"/>
  <path d="m144.38 290.06c0 4.8555-3.918 8.793-8.75 8.793s-8.75-3.9375-8.75-8.793 3.918-8.793 8.75-8.793 8.75 3.9375 8.75 8.793"/>
  <path d="m159.29 350.66c-1.4766 1.8555-2.1367 4.2266-1.832 6.5781 0.30469 2.3477 1.5508 4.4766 3.4531 5.8906 3.832 2.9297 9.3086 2.2031 12.25-1.6172 9.1367-10.168 22.578-15.371 36.18-14 4.832 0.34766 9.0352-3.2852 9.3828-8.1172 0.35156-4.832-3.2812-9.0352-8.1133-9.3828-19.441-1.8359-38.566 5.8594-51.32 20.648z"/>
  <path d="m399.18 349.34c-1.875 1.3867-3.1211 3.4648-3.457 5.7734-0.33984 2.3086 0.26172 4.6562 1.6641 6.5195 1.3828 1.8633 3.4531 3.1016 5.75 3.4375 2.3008 0.33594 4.6367-0.25391 6.5-1.6445 0.48047-0.35156 11.594-8.4453 23.668 3.2812 1.6406 1.6445 3.8672 2.5664 6.1914 2.5664 2.3203 0 4.5469-0.92188 6.1875-2.5664 1.6562-1.6406 2.5898-3.8789 2.5898-6.2109s-0.93359-4.5703-2.5898-6.2109c-5.8125-6.3555-13.75-10.367-22.316-11.277-8.5664-0.91016-17.168 1.3398-24.188 6.332z"/>
  <path d="m101.5 385.39c0.48047-0.35156 11.594-8.4453 23.668 3.2812 1.6406 1.6406 3.8672 2.5664 6.1914 2.5664s4.5508-0.92578 6.1914-2.5664c1.6562-1.6445 2.5859-3.8789 2.5859-6.2148 0-2.332-0.92969-4.5664-2.5859-6.2109-5.8164-6.3672-13.762-10.387-22.34-11.297-8.5742-0.91016-17.188 1.3516-24.211 6.3516-1.875 1.3867-3.1211 3.4648-3.457 5.7734-0.33594 2.3086 0.26172 4.6562 1.6641 6.5234 1.3867 1.875 3.4648 3.1172 5.7734 3.457 2.3086 0.33594 4.6562-0.26172 6.5195-1.6641z"/>
  <path d="m367.89 325.59c-1.9688-8.1797-7.3945-9.1016-9.625-9.1016v0.003906c-4.9258 0.21484-9.0117 3.8789-9.7578 8.75-1.6797 6.8047-4.332 13.332-7.875 19.379-4.1562 7.6133-8.75 16.23-8.0508 27.082 0.41016 5.9258 2.8906 11.52 7.0117 15.801s9.6133 6.9727 15.52 7.6055c1.2617 0.17188 2.5352 0.26172 3.8086 0.26172 5.2656 0.11719 10.434-1.4102 14.793-4.3633 4.3594-2.957 7.6875-7.1953 9.5312-12.129 5.0742-14.438-1.8828-25.988-7.4375-35.305-1.9688-3.0703-3.6953-6.2891-5.1641-9.625-1.1328-2.7109-2.0547-5.5039-2.7539-8.3594zm-2.3633 3.8945v0.30469l-8.4453-2.1875zm1.2266 43.75c-1.6016 3.6094-5.4922 5.625-9.3633 4.8555-4.0391-0.22266-7.2422-3.4805-7.3945-7.5234-0.4375-5.6445 2.5391-11.023 5.9492-17.281 0.83203-1.5312 1.6641-3.0625 2.4922-4.6367l2.3633 4.0234c5.1211 8.5312 8.1836 14.09 5.9531 20.344z"/>
 </g>
</svg>
