<?xml version="1.0" encoding="UTF-8"?>
<svg width="100%" height="100%" version="1.1" fill="#56bbf2" viewBox="0 0 700 700" xmlns="http://www.w3.org/2000/svg" xmlns:xlink="http://www.w3.org/1999/xlink">
 <defs>
  <symbol id="v" overflow="visible">
   <path d="m13.406-0.79688c-0.69922 0.35547-1.4219 0.62109-2.1719 0.79688-0.74219 0.1875-1.5234 0.28125-2.3438 0.28125-2.4297 0-4.3516-0.67578-5.7656-2.0312-1.418-1.3633-2.125-3.207-2.125-5.5312 0-2.3203 0.70703-4.1602 2.125-5.5156 1.4141-1.3633 3.3359-2.0469 5.7656-2.0469 0.82031 0 1.6016 0.09375 2.3438 0.28125 0.75 0.17969 1.4727 0.44531 2.1719 0.79688v3.0156c-0.69922-0.46875-1.3867-0.8125-2.0625-1.0312-0.67969-0.22656-1.3906-0.34375-2.1406-0.34375-1.3438 0-2.4023 0.43359-3.1719 1.2969-0.76172 0.85547-1.1406 2.0391-1.1406 3.5469 0 1.5117 0.37891 2.6992 1.1406 3.5625 0.76953 0.85547 1.8281 1.2812 3.1719 1.2812 0.75 0 1.4609-0.10938 2.1406-0.32812 0.67578-0.22656 1.3633-0.57812 2.0625-1.0469z"/>
  </symbol>
  <symbol id="d" overflow="visible">
   <path d="m9.8125-7.9531c-0.3125-0.14453-0.62109-0.25-0.92188-0.3125-0.30469-0.070313-0.60547-0.10938-0.90625-0.10938-0.90625 0-1.6055 0.28906-2.0938 0.85938-0.48047 0.57422-0.71875 1.3984-0.71875 2.4688v5.0469h-3.4844v-10.938h3.4844v1.7969c0.44531-0.71875 0.96094-1.2383 1.5469-1.5625 0.58203-0.33203 1.2812-0.5 2.0938-0.5 0.125 0 0.25391 0.007813 0.39062 0.015625 0.13281 0.011719 0.33203 0.03125 0.59375 0.0625z"/>
  </symbol>
  <symbol id="c" overflow="visible">
   <path d="m12.594-5.5v1h-8.1719c0.082031 0.82422 0.37891 1.4375 0.89062 1.8438 0.50781 0.40625 1.2188 0.60938 2.125 0.60938 0.73828 0 1.4922-0.10938 2.2656-0.32812 0.76953-0.21875 1.5625-0.54688 2.375-0.98438v2.6875c-0.82422 0.3125-1.6523 0.54688-2.4844 0.70312-0.82422 0.16406-1.6484 0.25-2.4688 0.25-1.9805 0-3.5234-0.5-4.625-1.5-1.0938-1.0078-1.6406-2.4219-1.6406-4.2344 0-1.7891 0.53516-3.1953 1.6094-4.2188 1.082-1.0195 2.5664-1.5312 4.4531-1.5312 1.7188 0 3.0938 0.52344 4.125 1.5625 1.0312 1.0312 1.5469 2.4141 1.5469 4.1406zm-3.5938-1.1562c0-0.66406-0.19531-1.2031-0.57812-1.6094-0.38672-0.40625-0.89062-0.60938-1.5156-0.60938-0.67969 0-1.2305 0.19531-1.6562 0.57812-0.41797 0.375-0.67969 0.92188-0.78125 1.6406z"/>
  </symbol>
  <symbol id="f" overflow="visible">
   <path d="m6.5781-4.9219c-0.73047 0-1.2773 0.125-1.6406 0.375-0.36719 0.24219-0.54688 0.60547-0.54688 1.0938 0 0.4375 0.14453 0.78125 0.4375 1.0312 0.30078 0.25 0.71094 0.375 1.2344 0.375 0.65625 0 1.207-0.23438 1.6562-0.70312 0.45703-0.46875 0.6875-1.0547 0.6875-1.7656v-0.40625zm5.3438-1.3125v6.2344h-3.5156v-1.625c-0.46875 0.66797-1 1.1523-1.5938 1.4531-0.58594 0.30078-1.2969 0.45312-2.1406 0.45312-1.125 0-2.043-0.32812-2.75-0.98438-0.71094-0.66406-1.0625-1.5234-1.0625-2.5781 0-1.2812 0.4375-2.2188 1.3125-2.8125 0.88281-0.60156 2.2734-0.90625 4.1719-0.90625h2.0625v-0.28125c0-0.55078-0.21875-0.95312-0.65625-1.2031-0.4375-0.25781-1.1211-0.39062-2.0469-0.39062-0.75 0-1.4492 0.078125-2.0938 0.23438-0.64844 0.14844-1.2461 0.36719-1.7969 0.65625v-2.6562c0.75-0.1875 1.5-0.32812 2.25-0.42188 0.75781-0.09375 1.5195-0.14062 2.2812-0.14062 1.9688 0 3.3906 0.39062 4.2656 1.1719 0.875 0.77344 1.3125 2.0391 1.3125 3.7969z"/>
  </symbol>
  <symbol id="b" overflow="visible">
   <path d="m5.5-14.047v3.1094h3.6094v2.5h-3.6094v4.6406c0 0.51172 0.097656 0.85547 0.29688 1.0312 0.20703 0.17969 0.60938 0.26562 1.2031 0.26562h1.7969v2.5h-3c-1.375 0-2.3555-0.28516-2.9375-0.85938-0.57422-0.58203-0.85938-1.5625-0.85938-2.9375v-4.6406h-1.7344v-2.5h1.7344v-3.1094z"/>
  </symbol>
  <symbol id="k" overflow="visible">
   <path d="m9.125-9.3438v-5.8594h3.5156v15.203h-3.5156v-1.5781c-0.48047 0.64844-1.0117 1.1211-1.5938 1.4219-0.58594 0.28906-1.2578 0.4375-2.0156 0.4375-1.3438 0-2.4492-0.53516-3.3125-1.6094-0.86719-1.0703-1.2969-2.4453-1.2969-4.125 0-1.6875 0.42969-3.0664 1.2969-4.1406 0.86328-1.0703 1.9688-1.6094 3.3125-1.6094 0.75781 0 1.4297 0.15234 2.0156 0.45312 0.58203 0.30469 1.1133 0.77344 1.5938 1.4062zm-2.3125 7.0938c0.75 0 1.3203-0.26953 1.7188-0.8125 0.39453-0.55078 0.59375-1.3477 0.59375-2.3906 0-1.0391-0.19922-1.832-0.59375-2.375-0.39844-0.55078-0.96875-0.82812-1.7188-0.82812-0.74219 0-1.3086 0.27734-1.7031 0.82812-0.39844 0.54297-0.59375 1.3359-0.59375 2.375 0 1.043 0.19531 1.8398 0.59375 2.3906 0.39453 0.54297 0.96094 0.8125 1.7031 0.8125z"/>
  </symbol>
  <symbol id="e" overflow="visible">
   <path d="m7.5-2.25c0.75 0 1.3203-0.26953 1.7188-0.8125 0.39453-0.55078 0.59375-1.3477 0.59375-2.3906 0-1.0391-0.19922-1.832-0.59375-2.375-0.39844-0.55078-0.96875-0.82812-1.7188-0.82812s-1.3281 0.27734-1.7344 0.82812c-0.39844 0.54297-0.59375 1.3359-0.59375 2.375 0 1.0312 0.19531 1.8242 0.59375 2.375 0.40625 0.55469 0.98438 0.82812 1.7344 0.82812zm-2.3281-7.0938c0.48828-0.63281 1.0234-1.1016 1.6094-1.4062 0.58203-0.30078 1.2539-0.45312 2.0156-0.45312 1.3516 0 2.4609 0.53906 3.3281 1.6094 0.86328 1.0742 1.2969 2.4531 1.2969 4.1406 0 1.6797-0.43359 3.0547-1.2969 4.125-0.86719 1.0742-1.9766 1.6094-3.3281 1.6094-0.76172 0-1.4336-0.15234-2.0156-0.45312-0.58594-0.30078-1.1211-0.76953-1.6094-1.4062v1.5781h-3.4844v-15.203h3.4844z"/>
  </symbol>
  <symbol id="j" overflow="visible">
   <path d="m0.25-10.938h3.4844l2.9531 7.4219 2.5-7.4219h3.4844l-4.5938 11.969c-0.46094 1.2188-1 2.0664-1.625 2.5469-0.61719 0.48828-1.4219 0.73438-2.4219 0.73438h-2.0312v-2.2969h1.0938c0.59375 0 1.0234-0.09375 1.2969-0.28125 0.26953-0.1875 0.47656-0.52734 0.625-1.0156l0.10938-0.29688z"/>
  </symbol>
  <symbol id="i" overflow="visible">
   <path d="m5.5938-11.734v8.8906h1.3438c1.5391 0 2.7188-0.37891 3.5312-1.1406 0.8125-0.75781 1.2188-1.8672 1.2188-3.3281 0-1.4375-0.40625-2.5312-1.2188-3.2812-0.80469-0.75781-1.9805-1.1406-3.5312-1.1406zm-3.75-2.8438h3.9531c2.2188 0 3.8672 0.15625 4.9531 0.46875 1.082 0.3125 2.0078 0.85156 2.7812 1.6094 0.6875 0.65625 1.1953 1.418 1.5312 2.2812 0.33203 0.85547 0.5 1.8242 0.5 2.9062 0 1.1055-0.16797 2.0898-0.5 2.9531-0.33594 0.86719-0.84375 1.625-1.5312 2.2812-0.78125 0.75-1.7188 1.2891-2.8125 1.6094-1.0938 0.3125-2.7344 0.46875-4.9219 0.46875h-3.9531z"/>
  </symbol>
  <symbol id="u" overflow="visible">
   <path d="m1.6875-10.938h3.4844v10.938h-3.4844zm0-4.2656h3.4844v2.8594h-3.4844z"/>
  </symbol>
  <symbol id="h" overflow="visible">
   <path d="m12.672-6.6562v6.6562h-3.5156v-5.0938c0-0.94531-0.023438-1.5977-0.0625-1.9531-0.042969-0.36328-0.11719-0.62891-0.21875-0.79688-0.13672-0.22656-0.32422-0.40625-0.5625-0.53125-0.23047-0.125-0.49609-0.1875-0.79688-0.1875-0.73047 0-1.3047 0.28125-1.7188 0.84375-0.41797 0.5625-0.625 1.3438-0.625 2.3438v5.375h-3.4844v-10.938h3.4844v1.5938c0.53125-0.63281 1.0938-1.1016 1.6875-1.4062 0.59375-0.30078 1.2422-0.45312 1.9531-0.45312 1.2695 0 2.2266 0.39062 2.875 1.1719 0.65625 0.77344 0.98438 1.8984 0.98438 3.375z"/>
  </symbol>
  <symbol id="a" overflow="visible">
   <path d="m6.8906-8.7031c-0.78125 0-1.375 0.28125-1.7812 0.84375-0.40625 0.55469-0.60938 1.3555-0.60938 2.4062 0 1.043 0.20312 1.8438 0.60938 2.4062 0.40625 0.55469 1 0.82812 1.7812 0.82812 0.75781 0 1.3359-0.27344 1.7344-0.82812 0.40625-0.5625 0.60938-1.3633 0.60938-2.4062 0-1.0508-0.20312-1.8516-0.60938-2.4062-0.39844-0.5625-0.97656-0.84375-1.7344-0.84375zm0-2.5c1.875 0 3.3359 0.51172 4.3906 1.5312 1.0625 1.0117 1.5938 2.418 1.5938 4.2188 0 1.793-0.53125 3.1992-1.5938 4.2188-1.0547 1.0117-2.5156 1.5156-4.3906 1.5156-1.8984 0-3.375-0.50391-4.4375-1.5156-1.0625-1.0195-1.5938-2.4258-1.5938-4.2188 0-1.8008 0.53125-3.207 1.5938-4.2188 1.0625-1.0195 2.5391-1.5312 4.4375-1.5312z"/>
  </symbol>
  <symbol id="t" overflow="visible">
   <path d="m10.219-10.594v2.6562c-0.74219-0.3125-1.4609-0.54688-2.1562-0.70312-0.69922-0.15625-1.3594-0.23438-1.9844-0.23438-0.65625 0-1.1484 0.085938-1.4688 0.25-0.32422 0.16797-0.48438 0.42188-0.48438 0.76562 0 0.28125 0.11719 0.49609 0.35938 0.64062 0.25 0.14844 0.6875 0.25781 1.3125 0.32812l0.625 0.09375c1.7891 0.23047 2.9922 0.60547 3.6094 1.125 0.61328 0.52344 0.92188 1.3398 0.92188 2.4531 0 1.168-0.43359 2.043-1.2969 2.625-0.85547 0.58594-2.1328 0.875-3.8281 0.875-0.73047 0-1.4805-0.058594-2.25-0.17188-0.77344-0.11328-1.5625-0.28516-2.375-0.51562v-2.6562c0.69531 0.34375 1.4102 0.60156 2.1406 0.76562 0.72656 0.16797 1.4727 0.25 2.2344 0.25 0.6875 0 1.2031-0.09375 1.5469-0.28125s0.51562-0.46875 0.51562-0.84375c0-0.3125-0.12109-0.53906-0.35938-0.6875-0.24219-0.15625-0.71484-0.27344-1.4219-0.35938l-0.60938-0.078125c-1.5625-0.19531-2.6562-0.55469-3.2812-1.0781-0.625-0.53125-0.9375-1.332-0.9375-2.4062 0-1.1562 0.39453-2.0156 1.1875-2.5781 0.80078-0.5625 2.0195-0.84375 3.6562-0.84375 0.64453 0 1.3203 0.054687 2.0312 0.15625 0.70703 0.09375 1.4766 0.24609 2.3125 0.45312z"/>
  </symbol>
  <symbol id="g" overflow="visible">
   <path d="m8.875-15.203v2.2969h-1.9375c-0.49219 0-0.83594 0.09375-1.0312 0.28125-0.19922 0.17969-0.29688 0.48438-0.29688 0.92188v0.76562h3v2.5h-3v8.4375h-3.4844v-8.4375h-1.75v-2.5h1.75v-0.76562c0-1.1875 0.32812-2.0664 0.98438-2.6406 0.66406-0.57031 1.6953-0.85938 3.0938-0.85938z"/>
  </symbol>
  <symbol id="s" overflow="visible">
   <path d="m1.8438-14.578h3.75v11.734h6.6094v2.8438h-10.359z"/>
  </symbol>
  <symbol id="r" overflow="visible">
   <path d="m11.812-9.125c0.44531-0.67578 0.97266-1.1914 1.5781-1.5469 0.61328-0.35156 1.2852-0.53125 2.0156-0.53125 1.25 0 2.2031 0.39062 2.8594 1.1719 0.66406 0.77344 1 1.8984 1 3.375v6.6562h-3.5156v-5.7031-0.26562c0.007812-0.09375 0.015625-0.22266 0.015625-0.39062 0-0.76953-0.11719-1.3281-0.34375-1.6719-0.23047-0.35156-0.60156-0.53125-1.1094-0.53125-0.65625 0-1.168 0.27734-1.5312 0.82812-0.36719 0.54297-0.55469 1.3281-0.5625 2.3594v5.375h-3.5156v-5.7031c0-1.207-0.10547-1.9844-0.3125-2.3281-0.21094-0.35156-0.57812-0.53125-1.1094-0.53125-0.67969 0-1.1992 0.27734-1.5625 0.82812-0.36719 0.54297-0.54688 1.3281-0.54688 2.3594v5.375h-3.5156v-10.938h3.5156v1.5938c0.4375-0.61328 0.92969-1.0781 1.4844-1.3906 0.55078-0.3125 1.1641-0.46875 1.8438-0.46875 0.75 0 1.4141 0.18359 2 0.54688 0.58203 0.36719 1.0195 0.875 1.3125 1.5312z"/>
  </symbol>
  <symbol id="q" overflow="visible">
   <path d="m12.672-6.6562v6.6562h-3.5156v-5.0781c0-0.95703-0.023438-1.6133-0.0625-1.9688-0.042969-0.36328-0.11719-0.62891-0.21875-0.79688-0.13672-0.22656-0.32422-0.40625-0.5625-0.53125-0.23047-0.125-0.49609-0.1875-0.79688-0.1875-0.73047 0-1.3047 0.28125-1.7188 0.84375-0.41797 0.5625-0.625 1.3438-0.625 2.3438v5.375h-3.4844v-15.203h3.4844v5.8594c0.53125-0.63281 1.0938-1.1016 1.6875-1.4062 0.59375-0.30078 1.2422-0.45312 1.9531-0.45312 1.2695 0 2.2266 0.39062 2.875 1.1719 0.65625 0.77344 0.98438 1.8984 0.98438 3.375z"/>
  </symbol>
  <symbol id="p" overflow="visible">
   <path d="m1.8438-14.578h4.1875l5.3125 10v-10h3.5625v14.578h-4.2031l-5.2969-10v10h-3.5625z"/>
  </symbol>
  <symbol id="o" overflow="visible">
   <path d="m1.5625-4.2656v-6.6719h3.5156v1.0938c0 0.59375-0.007813 1.3398-0.015625 2.2344v1.7812c0 0.88672 0.019531 1.5234 0.0625 1.9062 0.050781 0.38672 0.12891 0.66797 0.23438 0.84375 0.14453 0.23047 0.33203 0.40625 0.5625 0.53125 0.22656 0.125 0.49219 0.1875 0.79688 0.1875 0.72656 0 1.3008-0.28125 1.7188-0.84375 0.41406-0.5625 0.625-1.3359 0.625-2.3281v-5.4062h3.5v10.938h-3.5v-1.5781c-0.53125 0.63672-1.0938 1.1055-1.6875 1.4062-0.58594 0.30078-1.2305 0.45312-1.9375 0.45312-1.2617 0-2.2266-0.38281-2.8906-1.1562-0.65625-0.78125-0.98438-1.9102-0.98438-3.3906z"/>
  </symbol>
  <symbol id="n" overflow="visible">
   <path d="m1.8438-14.578h6.2344c1.8516 0 3.2734 0.41406 4.2656 1.2344 1 0.82422 1.5 1.9961 1.5 3.5156 0 1.5312-0.5 2.7109-1.5 3.5312-0.99219 0.82422-2.4141 1.2344-4.2656 1.2344h-2.4844v5.0625h-3.75zm3.75 2.7188v4.0781h2.0781c0.72656 0 1.2891-0.17578 1.6875-0.53125 0.40625-0.35156 0.60938-0.85938 0.60938-1.5156 0-0.64453-0.20312-1.1445-0.60938-1.5-0.39844-0.35156-0.96094-0.53125-1.6875-0.53125z"/>
  </symbol>
  <symbol id="m" overflow="visible">
   <path d="m1.6875-10.938h3.4844v10.734c0 1.4688-0.35547 2.5859-1.0625 3.3594-0.69922 0.76953-1.7148 1.1562-3.0469 1.1562h-1.7344v-2.2969h0.60938c0.66406 0 1.125-0.15234 1.375-0.45312 0.25-0.29297 0.375-0.88281 0.375-1.7656zm0-4.2656h3.4844v2.8594h-3.4844z"/>
  </symbol>
  <symbol id="l" overflow="visible">
   <path d="m10.516-10.594v2.8438c-0.46875-0.32031-0.94531-0.5625-1.4219-0.71875-0.48047-0.15625-0.98047-0.23438-1.5-0.23438-0.96875 0-1.7305 0.28906-2.2812 0.85938-0.54297 0.5625-0.8125 1.3594-0.8125 2.3906 0 1.0234 0.26953 1.8203 0.8125 2.3906 0.55078 0.5625 1.3125 0.84375 2.2812 0.84375 0.55078 0 1.0703-0.078125 1.5625-0.23438 0.48828-0.16406 0.94141-0.41016 1.3594-0.73438v2.8594c-0.54297 0.21094-1.0938 0.35938-1.6562 0.45312-0.5625 0.10156-1.1328 0.15625-1.7031 0.15625-1.9688 0-3.5117-0.50391-4.625-1.5156-1.1172-1.0078-1.6719-2.4141-1.6719-4.2188 0-1.8125 0.55469-3.2227 1.6719-4.2344 1.1133-1.0078 2.6562-1.5156 4.625-1.5156 0.57031 0 1.1328 0.054687 1.6875 0.15625 0.5625 0.09375 1.1172 0.24609 1.6719 0.45312z"/>
  </symbol>
 </defs>
 <g>
  <path d="m362.96 81.91h-35.105c-1.5 0-2.875-0.83984-3.5586-2.1797-2.0391-3.9805-3.0742-8.1836-3.0742-12.484 0-14.352 10.848-26.027 24.184-26.027 13.336 0 24.188 11.676 24.188 26.027 0 4.3008-1.0352 8.5039-3.0742 12.484-0.68359 1.3398-2.0586 2.1797-3.5586 2.1797zm-32.512-8h29.918c0.8125-2.1719 1.2266-4.4023 1.2266-6.6602 0-9.9414-7.2617-18.027-16.188-18.027-8.9219 0-16.184 8.0898-16.184 18.027 0 2.2578 0.41406 4.4922 1.2266 6.6602z"/>
  <path d="m406.14 141.48h-121.44c-0.78125 0-1.543-0.22656-2.1953-0.65625l-42.273-27.734c-9.7344-6.3047-12.852-19.93-6.9219-30.367 3.2852-5.7734 8.6914-9.5898 14.84-10.473l53.883-9.7461c2.168-24.082 20.668-42.504 43.355-42.504 22.723 0 41.246 18.422 43.418 42.508l53.965 9.7695c6.0859 0.87109 11.504 4.6992 14.715 10.48 1.9375 3.4219 2.9688 7.4023 2.9688 11.496 0 7.7578-3.6836 14.805-9.8516 18.84l-42.27 27.73c-0.65234 0.42969-1.4141 0.65625-2.1953 0.65625zm-120.24-8h119.05l41.273-27.078c3.9062-2.5586 6.2383-7.0977 6.2383-12.152 0-2.7109-0.67188-5.332-1.9453-7.5781-2.0039-3.6055-5.2852-5.9648-9.0156-6.5l-57.203-10.352c-1.8633-0.33594-3.2344-1.9336-3.2891-3.8242-0.59375-21.305-16.238-37.996-35.613-37.996-19.34 0-34.957 16.691-35.551 37.996-0.054688 1.8906-1.4258 3.4883-3.2891 3.8242l-57.121 10.328c-3.8242 0.55469-7.1133 2.9219-9.1641 6.5312-3.8047 6.6953-1.8203 15.723 4.3398 19.711z"/>
  <path d="m524.64 514.64h-349.28c-2.2109 0-4-1.7891-4-4v-398.56c0-2.2109 1.7891-4 4-4h70.602c2.2109 0 4 1.7891 4 4s-1.7891 4-4 4h-66.602v390.56h341.28v-390.56h-75.762c-2.2109 0-4-1.7891-4-4s1.7891-4 4-4h79.762c2.2109 0 4 1.7891 4 4v398.56c0 2.2109-1.7891 4.0039-4 4.0039z"/>
  <path d="m528.84 540h-357.68c-13.852 0-25.121-11.266-25.121-25.121v-407.04c0-13.852 11.27-25.121 25.121-25.121h64.68c2.2109 0 4 1.7891 4 4s-1.7891 4-4 4h-64.68c-9.4414 0-17.121 7.6797-17.121 17.121v407.04c0 9.4414 7.6797 17.121 17.121 17.121h357.68c9.4414 0 17.121-7.6797 17.121-17.121v-407.04c0-9.4414-7.6797-17.121-17.121-17.121h-73.879c-2.2109 0-4-1.7891-4-4s1.7891-4 4-4h73.879c13.852 0 25.121 11.266 25.121 25.121v407.04c0 13.855-11.27 25.121-25.121 25.121z"/>
  <path d="m271.54 477.63h-46.984c-2.2109 0-4-1.7891-4-4v-46.984c0-2.2109 1.7891-4 4-4h46.984c2.2109 0 4 1.7891 4 4v46.984c0 2.2109-1.7891 4-4 4zm-42.984-8h38.984v-38.984h-38.984z"/>
  <path d="m350 477.63c-15.16 0-27.492-12.332-27.492-27.492 0-15.16 12.332-27.492 27.492-27.492s27.492 12.332 27.492 27.492c0 15.16-12.332 27.492-27.492 27.492zm0-46.984c-10.746 0-19.492 8.7461-19.492 19.492 0 10.746 8.7461 19.492 19.492 19.492s19.492-8.7461 19.492-19.492c0-10.746-8.7461-19.492-19.492-19.492z"/>
  <path d="m475.44 477.63h-46.984c-2.2109 0-4-1.7891-4-4v-46.984c0-2.2109 1.7891-4 4-4h46.984c2.2109 0 4 1.7891 4 4v46.984c0 2.2109-1.7891 4-4 4zm-42.984-8h38.984v-38.984h-38.984z"/>
  <path d="m451.95 430.64c-2.2109 0-4-1.7891-4-4v-29.172h-195.9v29.172c0 2.2109-1.7891 4-4 4-2.2109 0-4-1.7891-4-4v-33.172c0-2.2109 1.7891-4 4-4h203.9c2.2109 0 4 1.7891 4 4v33.172c0 2.207-1.7891 4-4 4z"/>
  <path d="m350 414.06c-2.2109 0-4-1.7891-4-4v-37.246c0-2.2109 1.7891-4 4-4s4 1.7891 4 4v37.246c0 2.207-1.7891 4-4 4z"/>
  <path d="m359 349.44h-17.992c-4.9531 0-8.9844-4.0312-8.9844-8.9844v-10.246c-6.7188-1.7109-13.125-4.3672-19.113-7.9336l-7.2539 7.2539c-3.3984 3.3945-9.3164 3.3984-12.707-0.003906l-12.723-12.719c-3.5-3.5039-3.5-9.2031 0-12.703l7.2578-7.2578c-3.5703-5.9922-6.2266-12.395-7.9375-19.109h-10.242c-4.9531 0-8.9844-4.0312-8.9844-8.9844v-17.988c0-4.9531 4.0312-8.9844 8.9844-8.9844h10.242c1.7109-6.7148 4.3711-13.121 7.9375-19.109l-7.2578-7.2578c-3.5-3.5039-3.5-9.2031 0-12.703l12.723-12.723c3.3906-3.3945 9.3086-3.3906 12.707-0.003906l7.2539 7.2539c5.9883-3.5664 12.395-6.2227 19.113-7.9336v-10.246c0-4.9531 4.0312-8.9844 8.9844-8.9844h17.992c4.9531 0 8.9844 4.0312 8.9844 8.9844v10.246c6.7188 1.7109 13.125 4.3672 19.113 7.9336l7.2539-7.2539c3.3984-3.3945 9.3164-3.3984 12.707 0.003906l12.723 12.715c3.5 3.5039 3.5 9.2031 0 12.703l-7.2578 7.2578c3.5664 5.9922 6.2266 12.398 7.9375 19.109h10.242c4.9531 0 8.9844 4.0312 8.9844 8.9844v17.988c0 4.9531-4.0312 8.9844-8.9844 8.9844h-10.242c-1.7109 6.7148-4.3672 13.121-7.9375 19.109l7.2578 7.2578c3.5 3.5039 3.5 9.2031 0 12.703l-12.723 12.723c-3.3906 3.3945-9.3086 3.3906-12.707 0.003907l-7.2539-7.2578c-5.9883 3.5664-12.395 6.2227-19.113 7.9336v10.246c0 4.9609-4.0312 8.9922-8.9844 8.9922zm-46.668-36.246c0.76172 0 1.5234 0.21484 2.1953 0.66016 6.8438 4.4961 14.348 7.6094 22.305 9.2539 1.8594 0.38281 3.1914 2.0234 3.1914 3.918v13.426c0 0.54297 0.44141 0.98438 0.98438 0.98438h17.992c0.54297 0 0.98438-0.44141 0.98438-0.98438v-13.426c0-1.8984 1.332-3.5352 3.1914-3.918 7.957-1.6445 15.461-4.7578 22.305-9.2539 1.5859-1.043 3.6797-0.82812 5.0234 0.51563l9.5039 9.5078c0.47266 0.47266 0.91797 0.48438 1.3945 0.003906l12.723-12.723c0.38281-0.38281 0.38281-1.0078 0-1.3984l-9.5078-9.5078c-1.3398-1.3398-1.5547-3.4414-0.51562-5.0273 4.5-6.8477 7.6133-14.348 9.2578-22.305 0.38672-1.8594 2.0195-3.1914 3.918-3.1914h13.426c0.54297 0 0.98438-0.44141 0.98438-0.98437v-17.988c0-0.54297-0.44141-0.98438-0.98438-0.98438h-13.426c-1.8984 0-3.5312-1.332-3.918-3.1914-1.6445-7.9531-4.7578-15.453-9.2578-22.305-1.0391-1.5859-0.82422-3.6836 0.51562-5.0234l9.5078-9.5078c0.38281-0.38281 0.38281-1.0078 0-1.3984l-12.723-12.715c-0.48047-0.48438-0.92188-0.47266-1.3945 0.003906l-9.5039 9.5078c-1.3477 1.3438-3.4414 1.5547-5.0234 0.51562-6.8438-4.4961-14.352-7.6094-22.305-9.2539-1.8594-0.38281-3.1914-2.0234-3.1914-3.918v-13.43c0-0.54297-0.44141-0.98438-0.98438-0.98438h-17.992c-0.54297 0-0.98438 0.44141-0.98438 0.98438v13.43c0 1.8984-1.332 3.5352-3.1914 3.918-7.9531 1.6445-15.461 4.7578-22.305 9.2539-1.582 1.0391-3.6758 0.82812-5.0234-0.51562l-9.5039-9.5039c-0.46875-0.47266-0.91016-0.47656-1.3945-0.003907l-12.723 12.723c-0.38281 0.38281-0.38281 1.0078 0 1.3984l9.5078 9.5039c1.3398 1.3398 1.5547 3.4414 0.51562 5.0234-4.5 6.8477-7.6133 14.352-9.2578 22.305-0.38672 1.8594-2.0195 3.1914-3.918 3.1914h-13.426c-0.54297 0-0.98438 0.44141-0.98438 0.98438v17.988c0 0.54297 0.44141 0.98438 0.98438 0.98438h13.426c1.8984 0 3.5312 1.332 3.918 3.1914 1.6445 7.9531 4.7578 15.457 9.2578 22.305 1.0391 1.5859 0.82422 3.6836-0.51562 5.0273l-9.5078 9.5078c-0.38281 0.38281-0.38281 1.0078 0 1.3984l12.723 12.719c0.48438 0.48438 0.92188 0.47266 1.3945-0.003906l9.5039-9.5117c0.77344-0.77734 1.7969-1.1758 2.8281-1.1758z"/>
  <path d="m350 306.03c-25.516 0-46.277-20.758-46.277-46.277 0-25.516 20.762-46.277 46.277-46.277s46.277 20.758 46.277 46.277-20.762 46.277-46.277 46.277zm0-84.551c-21.105 0-38.277 17.172-38.277 38.277 0 21.105 17.172 38.273 38.277 38.273s38.277-17.172 38.277-38.277c0-21.102-17.172-38.273-38.277-38.273z"/>
  <path d="m219.24 333.13c-2.2109 0-4-1.7891-4-4v-127.5c0-2.2109 1.7891-4 4-4h31.355c2.2109 0 4 1.7891 4 4 0 2.2109-1.7891 4-4 4h-27.355v123.5c0 2.2109-1.7891 4-4 4z"/>
  <path d="m219.24 333.13c-1.0625 0-2.0781-0.42188-2.8281-1.1719l-23.617-23.617c-1.5625-1.5625-1.5625-4.0938 0-5.6562s4.0938-1.5625 5.6562 0l20.789 20.785 20.785-20.785c1.5625-1.5625 4.0938-1.5625 5.6562 0s1.5625 4.0938 0 5.6562l-23.613 23.617c-0.75 0.75-1.7656 1.1719-2.8281 1.1719z"/>
  <path d="m480.76 333.13c-2.2109 0-4-1.7891-4-4v-123.5h-27.359c-2.2109 0-4-1.7891-4-4 0-2.2109 1.7891-4 4-4h31.359c2.2109 0 4 1.7891 4 4v127.5c0 2.2109-1.7891 4-4 4z"/>
  <path d="m480.76 333.13c-1.0625 0-2.0781-0.42188-2.8281-1.1719l-23.617-23.617c-1.5625-1.5625-1.5625-4.0938 0-5.6562s4.0938-1.5625 5.6562 0l20.789 20.785 20.785-20.785c1.5625-1.5625 4.0938-1.5625 5.6562 0s1.5625 4.0938 0 5.6562l-23.613 23.617c-0.75 0.75-1.7656 1.1719-2.8281 1.1719z"/>
 </g>
</svg>
